/* XPM */
static char *fe804fff8c6345bfa201ffe21effd635cy7UYQ9MI09ogNVA[] = {
/* columns rows colors chars-per-pixel */
"128 128 64 1 ",
"  c #662A1E",
". c #723224",
"X c #81392B",
"o c #7B3B2B",
"O c #733E34",
"+ c #7F3D27",
"@ c #64453F",
"# c #8B3C31",
"$ c #89402C",
"% c #894133",
"& c #90402F",
"* c #864332",
"= c #824538",
"- c #8E4431",
"; c #8A462F",
": c #814D41",
"> c #944935",
", c #904B35",
"< c #9A4837",
"1 c #8C4F42",
"2 c #984D39",
"3 c #944F32",
"4 c #945039",
"5 c #755852",
"6 c #9F4D3C",
"7 c #9D513D",
"8 c #995542",
"9 c #9B553D",
"0 c #9D5739",
"q c #975849",
"w c #A35641",
"e c #9F5941",
"r c #9F5947",
"t c #A65A4A",
"y c #966154",
"u c #A65E40",
"i c #A55F46",
"p c #A5614D",
"a c #8A6860",
"s c #91675F",
"d c #816C68",
"f c #AE6547",
"g c #AB6954",
"h c #AD6A4F",
"j c #B06F59",
"k c #8E7975",
"l c #B5735D",
"z c #9F7972",
"x c #AC7769",
"c c #B37861",
"v c #98827F",
"b c #BA7F69",
"n c #A28C89",
"m c #B9897A",
"M c #B58E86",
"N c #AB9592",
"B c #C19B92",
"V c #BC9F99",
"C c #B5A19E",
"Z c #C9A79B",
"A c #C6A9A3",
"S c #C0ABA7",
"D c #CAB5B1",
"F c #D2BDBA",
/* pixels */
"2222777200iw9eww>e29wew4w9,24eww$w9wt77>727t777727272r22>,>*;8>,,>->->->,>>>>>>2>2<2<><>22<2<2<7<2<2<>29e2-22272e>$92VNSB9-72222",
"2>3e>207970707ewwewe79e92ww7e9e7e79ww7eww7p7t77>277272>>4$>>8$>,-*;>>->2,>,7->2>82<227&>929>722222222>222$22-e9>9$>-4nvSA22222t2",
"22222727772770wew07i79977e7e7w9792222w7www6t7766e7627r>%$->>7>%>%>o>->>>>9>>>2>7222222<227<222<2<-222>&w722e2>72$2224NvSV2>92>22",
"722>3>>27997977w0-9707e7eiwegww7e7772e77tw>w777t7222299>>>>-,;>,--;-,-,->-;>>>22>>2w627222->&22>222>>7797$$>379e3$274NNSV9t2e222",
"2e>e>9778>2>2e773777-77->ew2-779777w776776t76&26>27$>*>>$;%448-;-,-$*%->%>>>>2>>>2<>>222>2<2-p<2<272<-w><2227-7e222-1CnSB-27992>",
"2>2222797222i29247e7779777w2e77->77t726662<><26&6<<2r>,,;;;;,4,;;-*;+;-2>->>27<77-2>229>2-2222&2r$222-2-22r>2222t2>24nNSZ29>22>p",
">22>$2222-2227ee>7eet22-2,e7-rt786&><2<t<6><6<<6><>>$>-,%;*,;*-;*,>,2>o%>>%>78>>>%>->922-2>2$2>-$>>222>2r2>>2222-2221NnDZ2>>9222",
">9>7722732727>72427>3272te727>22%><22><7><6<26<<<t2&->>-*+;4>;;->-;-,>4>>>>>,-;>%>9>,>,;,>2>9>2>22t>22>>222-9>2272928nvCB2229922",
"22922272222222292222-2e22222222><2<2<<<2<t<<6<&<2#<&>>>>---,;;-,-%,>2>->2>-4>,-4,9;,2,>;>4>>8>8,>>>222,->2>2-2>22$-41nvSM>2292>r",
"27>2>$3>222222>2w2222-727222222222227262272<2<<6<<<&<2<>>$>>>>%->->->->>,$r>>;>4,>,4,4,>2>3>->424>424-479>2-227$22221vCSMe292292",
"222>22222r7222>2222w922>>%2-2222<>>2>22>>>>>>>>>%>#$>>#>#>$>%>$4-$->$,;8;>-48,>,+>8>>;>2*,>$8,>,$4>>>4>2>->>2222>>24:knCm2e>2222",
"393227-$77w2422$329239t23292>22>2>2>2><>47>>>>2>>>$2>>>-8>>->8,-8>$,->%;>,4;>;>4449,,,3;3,,,3,,+34,,;,,,,>$>4>e22$94:nNCm2>$9>22",
"22>222272>2222->>22-272-2r9$>9->>>>,>,>;;,->8>%-->*r8>24---,o--8-;$4-,$;;;;;,+;,;,;,;484;,;,*4;,;,8,+,>,,4,r2>22>>>8=vnDm4>9>e>2",
"9222->22$>4>p>,,,>,;,%4>,>e4,4,,;;;4,,,+>;>;,$>;>;,;;,;;4;>;;4>;>;>;>%4;>;,;,,*,,;;,,;,;,;,;,-3,,o38e;,,,>;49>4>t241ynNDB*7>tr92",
">2>>2>29>;>4++,9,,*,,93,,9,,,,,,;,;,1,;,,,;,+;;,;;+;;;*;*;,*;;1;;;%;;;,,;;*;;,;9;9-,-,;+,;;,;91,,,,,;>>,>2>>>,,2>2-1=NNSBq$29922",
"3>42724>9,3;3,3,>;3,3,3,3,,,3;3,,,,;,;;;,;;;,;;;;;,;;;,,,,;;,4;%4;,;*%,;,;,44,,;;,3,3,3,3,3,3;344,,;943>9>,>2>2-4221yNSDA*o$%222",
">>-2>->4>,-,,;,4+;,44,+4,,;,4,+,,;;,+;;,;;4,;4;;;;;+;;;,+;o>+>o>;>$,;,;,-8*%*oooo.X*ooX+o1+*+;X;%;X+++++o%X%%oXoo%%::NCSVqX++2e9",
"2-r23>49,8,;,,3,3,3,,,8,,93;,,44;83+4,;e;,,;,o;44,,;>;>;,;98o*;;4$%X*oooo oo+XoooooX...XoXoXo.oX*.o.ooo.*.oXo...+*qsNVVDSBx.X%42",
"o=o*ooXo o.o.o oo...... ...ooo.*.o  X..oX*o+o*%***++*%Xo*oXoXoooXo.ooOOOOOO:O:oOoo...ooo.o o.o.ooo.o . ...o.=:1ysyzCDDADDFVo.ooo",
"o.XoX.o.X.o X.o.........o.o o.o X...@@@ O=..*.o.*ooX.ooXo*o ==1:sszkzkkakdkdkdkkkkkkzdkdkkdkvvkvvkzvkkvkVMMMMVnzvNCNSDADDDDzy1=o",
"y1==OOOOO==1=::s55aaavavkzazvvvkkkkvkkdd5d@aOoX=o=11=11qyyzx5z5vvkkndvkvvkkkdkknvnvNvkndkvvndnnvvnvnnnnNNCCCCCNnCCCSAVDSADAVBMzs",
"DDFSSNNNznNnnNnvkkvkvdkvvknkvknvkdvvn5dd5dvvNnCCNNCNNnnvNnnnnnnvkvnkNvnNvvNNCnSCCNCCDCSSSDSSCSSCSSSSSCSDDDSSDDDSDDDDFDFDFSFDSDDA",
"MAVADSVNnNnnNnnnkNNNNCNCNSnNCSCCCCnNCCnCCNCCNCNCNCVNnnvNzMzMmVBznNvMMMMMMMMMMBzMBBmMMMmMmBmBmMmMmmmmxmxbbmbmgbbmcmbmmmmmmmxmmMmB",
"cccxmxxmmmmmmmmMCDSSDMMBBBBmmMmxMmmBMBBBBBMMMMMxmxbxmcmcccmljggbbcccbjblblljllpjccglccxgpllpjjcjcbcjljjjgghghgjghjbllcccccbbcbcx",
"rpigigpg9epiie>7yMASAAZBmccblbqcjcllcllbcbcbcjlbxbxbbbbbxmbbxcxbljcbcccbxclcbcgjghjppglgippglgggpgihpcgjigpjpgphphgggjjjgjggggpl",
"iipet9rie7tp72222rVSDAVpclbcblcgjbcjblclccbcblcccbjbbcbccccbccclcjcjcgcjjjcggpggpipeireii7t74292>7979epe9wteeet7tppep9piirpppipr",
"4422>7274272-227w2yvAAxmlcjhihhhhlhhhhhhihieepigphgjjcjjgjgjpjgjggggpgpjggrgipipepgiiewe727722-722>9e2-222>2;72r>422292277*9i97w",
"p$223>7>32>26$9e921zMMcccghihffifiiihiiiiigihippgipjhggghgggpggjgggrgphgpgpgpihgiee9e0i2e747i772723732>2>22>372>9>222222t>2>>2>e",
"r22222<>X22ee92>22qznMxlgiiiii2iuiueiueeeeeieiie7ewewieiei9i8ei2weweweee>iwe2iwe229e-wie7777722722222222w2-7222-922$2722222>2222",
"227>2>2e2777222222qzNMmjeiii9wiiigieiigpee,eewueeweee9eeg2ieeieipeeeeweip9iweie9w99007073797927>9732222>2-9->2922e9e2222223>>922",
">222-2222e7>22>2728knBxiei7iig7ew7weeiwe9ewew7wewwiweee9eeeegeeeweweieee994w9wiw7e702227742227>22229222>2-222e2222922222-22>2229",
"324292t229223>t-32tvNMxiiiiiieiiuep>e7e077w74we9wwg9w9eegeeieeeweee9w9w9e7e907e7e7927772>$727232322>>2>2$>22979>9232322e3$3$3222",
"->2>>2e22->-2>2222>vvnxg7eeipetewwweww9w97797e>77e7w299ew9wp9www799777ep4ee77777,727722>222>$2>9>--2222e222229229222-2ee2e>22>e>",
"e2e22222>2e>2792227CnMmie7ieiwi2eie2w9720>979w929iww9749tet772w99e979>97772277927272-222p2>722222>22922722re2>,222t2-->>222222e2",
">222-272e-2222$2-22vnNzpiewewe4eweww2e7977e77977>pw279997979797>>p7-77r7279re4e>2w77r7222>2>29222>222229229>-2o22w$2-222722e>2-2",
"3222te>7722-92t-32;nnVme,wp9r9eiw2w2p7t79297r7997797999rt7979p777792929e777292re929e7>4292777272727-7>22r227929732>2372272227p22",
"--22222-2w->-2>e>7>nnVxr9r>we>ie>e>e7277472r77e-7779>rer77>9794*iw2727272re227272222r72727e72778222222e9e22222>9222e-2>222222292",
"2777>29>2-2>>>>>2-3nvMx2t2w777i9w2w797e7-2tw>2727>7774t9ger79e97729e7272727772r2727277,272,942797>7>222>229>9222223>2>>>t2322222",
"22>2->->->>X>-X>>22nnMxe9t>e9749777ww722294727272p47797979997947>9772222>t2727797>e$29272g$727277722i72e-2272e-22272>w>222222p79",
"2>4>>>>>>->>q>>>-%2nNSm2eee$p287>777t77er772797242>987rer9w9t7>7727972727$9277p-7972t242p77>77t272>29>7e,22237e7377-9>223>p2222e",
"->&>28>8->7-%>->%>eNnCjpwer9te79>9722727224;29477i79e99999%r47>,r722-22722222r2p22;2272727272>-7e22922272227-22>e7>2>2>>>22-$>>>",
"-X->>-%->->2-$%>4>cNCVcerrr9g9497947>277-2777ep7p79e9e878799979799927792>-r,92e27>t292777e77777-72-979;22>2-24r-2>9>2>>729<2>$--",
"1$%$&-%-->%%%4->22qNnVjr>reer89p799e77>227w2%4292r979t9p9r>77e47794774222227292727$>2-274777272>29w22>22>2>2>>-t>>-22>--%-&XX-$-",
"---%%>-2%-%--&>24>qvCBg,rprp89p9tr99-49997777997t98>t9p7tir74p977>per772p27p777-22777it9779->27r92>292%>>>->4-<>>-<2-X>>---%-->%",
"%-%-%X#-#$%-$$%>->yNnVq8ereierep9294e9e27r287r977e789799299w-r7777277e7777972--7274-*2422>47777t7722>2>>->>>->->$2>$&---#%--%XX%",
"$#&%$%1%&#>#$#$-42pNnVprtegp1et7rer9rp4e92p9r7t2r9t7r9tpr98297979792e7>222272>977e7777877eg9e29272422>2>>>>>>2>----------X2%&%&%",
"#$$%XXX%X&##X##--$*NnVeeeerr94%799792ipe9p979r79e878erip>99re8p774*97774288pr2>7782229r79727772>%222$>>->>->$-%---%X%$#2#-#&X&#$",
"$>#X2#>#8%#X%#<X->qNSzr7rprei9e9rereee9r99e4r-89ter9t9t9trr9t982wr9>r>42224>272>228-4222822-828>>>8>>>44>->-<---2-X%<%&%&-&#->$#",
"##X%X>X#XXXXX##$#>qNCM2r9eeieerreeee8e8eqpir4rrg9998*re4992p7927122282%7>>>>77>2%>22*->>%>>>%>%>%>%>>>8>-X%X%-%$#%%$#X%$#%%X%#.#",
"&##X#.%X#X%X###$&-ykCm%,r7te8eepr8rrrp9e8itp97tet9t949r>99r>97t%82422>2>>>>>8>2%->*%>%8>q%>%->&%-2-X4-%22&2--%$$$#>%$#>#>#&#%X%.",
".XX#%%##X%X##8#<X%yvCm.oo,eiepeier282r999eee9ee99988782p289278%7224%72>8>>%>>>#%>>%>>2%>%X%%%-$%%-$X%X%-2&$--<%2#&.$#&#$#X.XX%#X",
"X .XX.XXX.X XXX.*.=aSMxooo*9-94e8,444*4*4*****%%4**X***o**4*o**X..o O...o o .oo.oooo* *.= o.X.o.... o.. o.o.X.X...X*X.X.%.o.X.Xo",
" . . . ... . .o=  OsVAVMX. %XoXoXoX%oooooo**oXo*o*o%ooXo.oo+o. .   OOO     O OO@OO   ... O   . . = ...oo ... . . . ... ..... .. ",
"Oo=.o.o===q1q==.1oxMSDDAqo..oo*XoooooX=o%oooqo====O===O==O:::O555d5@d5kkdddkk5kdv5kkdadkdkz::Os=O:@==:::OO::::===.=X*..XoX..o.o.",
"aNnNnNzvkvvzvMzMMMvVAFAFBVxxMMzzsxssszsszzzvaMvNdnkvvkvkkvvk5vk5555d5kdnkvdddkdkkvvvdkvvvvkkdk5v5dd55ddddk5kkkakkkavvkkkakkkvkkv",
"nnNnCNCNCCSnCCSDDDSSFSDDADDDCVCVDNNCCvNNNvNvnNknvnvvnvNknkNvnnvvnnNnCNCCCCSSCCCVSNCNNSCCSnnkvkkkddddkdddvdvdvdkkvkndvkkkddkknvvn",
"CDSDDSSSSSAACCVSADAADDADAADADDDDASSCCCCCNCNSVSSACSSDSDADDFFFDFDFAFASDFDDDDCDSFSDSCSSVSSSCCCSNNNCNvnNnvnNnnvNvndCnNNSNCnNvnnnnkCC",
"DDDAVAZmZMZMBBZmBBVVAMVZAZBAAAAADAAADAAADAVABBMBmxbxmxmbxmBmmmmmmBmmBmMBAAABAVZASFDDFDFFFDBmmmZZBmMxMmSSDVDSDSAAFAADDDDFDAFDFDSD",
"xppjjclblccclglclhgggljllljllhhhljlggpjggjgjlclbjbjllbcbbclbbclccbbblgjjppwpiglmSDDFDFDBcblblclccgljbcjcxgxmlgqmxmxmymxmxcgxmxjm",
"clclglllclclccbbllcllcclmcclblblbcclljlclccjclcccjbllcbcccclmcccmlclmjcggpgpppccDSFDFDZbmcccclcjccclclclccclccclclblccbjbjclljcj",
"lcllhhhhhlhlhjlljliclglcllbjlljllpjjjjjjgjhjggijghghihijlgggplgjghjriigeew722292ADSDFDbmlglhllhlhlhhgclcjlgcjcjjjblcgcjljclcllll",
"jhhhlhhheihihihghgjgjhjjhhhhhrhhrigihppigigjheigpp9iieewweieii3>e707w2722732222$pSSSDBcllfufhuhhhufihhhhhhjjhjjjcjclglllljjjljjh",
"eiuiuiu0uieiuiiiuieihiieiiiiicieih0ieei0w9097099weweie707e7p749w7i7e7w$-22-222222mCSNF8hiiii0fihiffhu7iiufilifihhhihihiiiiiieiei",
"uuiguhu9hiu9u9u9heeeeeieeee9eei90999099999979907,70-07>70e32w0079ww>>$p277>>e->>94MNSDiiiifuiuiiiiui0uieh9iuiuu9euueueueu0u9ui99",
"i00u0e090e0e9i33-0ii04909099i9i99i3039394,292e2737777e7p777t2p-w7777re772e4-7229;4NSCDifihuiuuwihu2uei9ui0ei4e9e90u43h9uie9e0u0e",
"000,0ieee0i30990e90903i3090e0,9999e3949e9442929i33770>974w979w9e7e72422292->>79244NvCViifih0pee9eeueweeeieeeeei009ee0eeieeh0ei00",
",i409490939099009039e049094,3e;934>48;4,4427232723224w22292>7>w22222-22>2>22->2222vnCAuiiii99e2eee09909e0e090uee0e0i9,i0309e0490",
"09,3999;090,933994334444494,,,4,4,;,4442,9;$32323$329772>2329>>-37223-2232-22>2>24MNCAeuieue0202920,e909i900u0090e090400490909e9",
"493e343434443,3e9e39*43,,4,4,,>>,,,,*,94>,23-$2e2222-2w2>22>222>92727>>e227r>e>22gzNVDeeew0e9ewi>97i299,39;e99e99,399949994049;9",
"44,9434434,4,49,4,e,443,4,4,,,98,,;,;48442>23>9>4272,2>24>422>92>>72e24-924>9>r>22NvCDe7e;ei7$72979e999999e99404i4099399i4009394",
"3,34,,4,44,,;,*4,,,,*,4,;9;,,;;4;,+8;,>r-42323292422234>-$>4,,2>>ro4>,>9>8>943>>-,MkND2>79>w7222-32273293430393933e93939;9393,,4",
"44394,;,8,,;48;;4;4+;,;o;;4;,;;;,;,,,89,449239329$494e3>4>48,,,2;4,>,,>,7>92;22248MnNA22p2>-9232;2229273444944;;944494i44,4444;,",
",,*,84,4o;*;*;*;*;*;*;1;*;1;*;*41;;8;,%4>42,>22>222%-324>>>2,,,;,4,,;,>9>,*4>,>2>7zvNF22w223222>3222-9233434$4,4;;3443;4+;,3,+,,",
"*o,;;;;;;*;*;*;*;*;*4*;;4*;;;4**8*;4,8;4>>4232r-42449>3>4e9,2,2,4,4+,,,8,r*-*42229MvND9722222>42->;2e234444e434333494343;94,,*;,",
";+*,+;*8o;*;*4*;****=;***;*;***4*;**4>,,,9,>,>292>22,3>32,84,22,>449,-,8>,>o>7>2>8annF222222723>222>2,2329>344,494,484,4,,,,o,o*",
",;;8;;;4;*;***=***4*%*;*;*4*;*;*;,**4,,4;,2,424-i24$2e323>4i9424,84;4r42>24r$-472-zvCA7>97223>92-$9-9292324+43443344e33,3,4,;,,;",
";;;*%*%;o;*o*o*;***;*;*;4;*;*;%;**%;*;%,>>,22->222242r2324242424g423242>,9,;22-22,svvD>>e-222--e>2722eo3>-+,>3;4;33433,3,9,,;,;,",
",,,,;;>;>;4-;*4;;*;;;;;;;;8;;%;;>;88,$*2*>2-424242,2r2399,>2;2724232p2324>,,7>3922zvNS>22237929-223292329>323>e2,434,34,4248,,p;",
"$>8,>,*>>-%-*-14*-*%*;%;X>4>;4->>>*>$,2,>2>i23222>232,+22344,4>,-4>,;3e924-222>>42avnFe222-2>7>2>9-2>22tr>-2222r2222242,72$9492,",
"222>2>4-,>>>4>>4>>,,,>>>->4r4>,>4>4>2242429932r>42,9323>44423948;9224-4,22492>2292zkCD274-2232223292322e3222>2>232,>42r29>re9292",
"2>22>2$2-9>29>>2X>-222$-e92279222222224229>223>222232223->348449222924,;,9,r>29>>+snnD%*o72222>222->-2227-22-2222>e2e2>27227922,",
"92>22927->%-222>27229272>272r-999e422292224,e24->>4;49323248427;42229;224>722922,oMSCDqoo22222r2222272p-729>>2>2$722229922422242",
"-22e22>2>2>p-2>%>22722,92>2>722e2e>22929>-2294222329-929-92;2744-4,$>289,2,r>2>4X MSSDx1.o222222-7222>2272722222>2>>$22922e22422",
"%$>22>424>9>9-727722,727r>22t>w29>9242929r9-322>8*,,;>9>22,992>;,49,2*22;2872>4>o.ACCDSM=oo-;2223$223e2272e237e2p7;>9292922-9997",
"OO:::=:=o1o*ooo1X%%o*o*oX*8o***=*=*1Oq==**o=***oo=.oXo..oooo o.oX*Xoooooooo***+*.OnNNSCCn.X..oo%Xo+*+%%+X*oooX*%+*X*8%o*1.X;XooO",
":555a5aad5d5d55555s55@5@:O:OOoqO=O::::::::::=O===OOO:o===O====:=Oo=o..oo. +...ooOknvvSSCDM4o.o*.*4%8*Xo.oX4***=oO1==O1=O===::@:@",
"kkkkvkvvvNnnNNvNnvvNnNvvnCvNvCnNkCNnnvnkvNdvvnvnnvvvzvzvkzazazkzkzzaazaa55as:s5s5kvvNCNnCVssaaaaaa5a5aaazsyxymxyyssszzakaz5ddk5v",
"NNNnCnSCSCCCSSDCCCSCSCSCSSCCSCCCNCSCVNCCSNCNCCNNVNVCCNNNNvNnNNnNnvnnnnnnnvvvndNkkkvNCCNCSAMnvdkkkkddddkkkdvvnkvkvvkvnnnvNvnnNnNn",
"NNnCNNNCNCCNNCCCCCNCSCCNnnvNNvNCCCnSSCnCCCNCVCNSVNCCnNVCVNvCnNnNvvknvnnnnnnCknnknNNSDFDDADASDCCSCCNNnvvnvNNnNNnCvCNNCCCCCCNCNNnn",
"MvMvznNnNnvkMzMzzsmMMMmxmxmzxxmmmxmMAVASCCSSCVCVVVVVVNVVNVSCNCnNNznnnnnkvvnNnNSnCCSSFDDDDVADSAFDVDFFSFFFFDFDFASFDCSSCNSNCNCkCNnC",
"xcgjjjjljglljcllpllpggjggpcjpjllljjmMVBDSDCVVBpljclmcblpbjllcclbjccbbcccccxcccjcljjjxcxbxmbbbbbmmmbcxmbcbcxbxmbmxmzMMMmzxmmxmmyc",
"cjbjjgcjlccllclgcbclljccclcggggjccclgBBADSVBBgjlcjjjljljgjjgjgjgggjjcgljggjjjggjcjcbcjllccccllbccljjcbmlblclclxllljgjjgggcclccgl",
"gjgjgrgggpjggggggjipigip4e29>4>2>$-rjjyCDCVxe9e98ippiepgirpprpipigjhgpgcijphggppijijppgjplljcllcjcgjpgghljjgjpgggiigigehgggjpjjj",
"iiieppie8>9277rpp9t442*,>>>4>-,>,8>>glcVSAm*92;2924eret9pri9r8ppiiggprpppiteew9w8wheeee9eipigweeeeher7rp9>9e9i92we8ippgippeppepi",
"99r77977>222>22424894,;,;>;,-,>;;>>28jgSSAy222222,2rr422,72749e7>-7792>9272e7e7ei079972wwe9w0w7079277wwp297779>77979e7e47977>724",
"7e>2%22292;2--22$>i>;+;;>->-$-,->>*>42eSSDx2922-929>229299r9,222722>222$3>7277r7p7w22e3weiewe>070e0>p2p7t7t7>70247>7pe279w97r797",
"272722e7%,9222>>28>>>,2,;>o>4*-%;>>>-e>SCDxe22292222292227222299222>29e222>9222e727hwewewi9pww9ww7727>>77970i9,0e77>>97072>97772",
"p79274,27e3299->4e,>,$;>>;>>,;>>,4>2424SDDmr9292te2222422>2222e7>2>>7222722>227797i7w74weweww0073707070e07e7ew32iweiw7ei07979707",
"2ir9797,e>7422,>>%;,$,;,;>>>,>*,-,>9,,2CDDx>29222222>222-29>22>92272222222722e>72777707e7e77ii7p707090we7e9i923w0w9w>499977w2iee",
"e709929747,2228-7-,24>8>>->>,->8,,,2424SCDxr427992229242722-99723222>2w>32227272r27e079797e77r0i9702w7w9wie7weewgw92eee2e9ew99ww",
"e9299,2422>,;,>,;>,;->2>;>X>--;,>>>2>,-SSDxi,22222-92p422229>,22$2$2922t2p222e2---77222-27222>77w977ewww92w,we7ew4wwwew2w99ewg9r",
"99924242,,4>>;9;,-;-4;4;,;2;*>,-;2422$4SSFj$729222;2,2>>7>w-424-223222222>9>e229223>2we2777>72777>07w9w9wweweweweie>pweegwee4999",
"2949>44,8>;>*;-$%;-;-;$;->-,>,,;$,,2$>2CSSj222e22922>r22222222222222>e272222e2$7222e->222>2-272777772e9iwe9eweweiww9eewi2e979974",
",4,4p,4,8;;;*%;$8;;$;-;+,+;;>$->,94222$SSSg2929272929i2-9>2>9i2>22>>w22-92723222322>292232>29>72e7r79ei>7ee>eeip,e9e09e9eeie9>94",
"44,4,;-;%;*-$;,*$;%4*;%;;;-,->>,>->9>7>CNDp4>222222;>-2222-22-222229$27222>92>-2229$22>2>22222272e797e9wigwe7ewpweweweie2e79r9e;",
"4r;;,4-;;o;+;=**,$;+;X-;;,-4;-;>,>422;4CCS8222922222,29249,2222>2722>72$92222222>272227-2>22>2727272i9w2iweeewee97ee7w,94e9942,2",
",4*,,;%;%;=+X;1o$o*4$;4$$*%--;,>2,$>>42SCSr29>2227>27222>2$22222-922-22222222p>2->27>2>>2>>2>e>2222229997999999e99r994,99,29>488",
"8,4;;;;%;;;o;%;%;%;.+;,;;-4;;-,,r>98727SSSg>-$2292,29222,222>2>23>223>2-e2>23>2-922>2>4$,>8>4>r>>>4>247rr99292r>949e924$4+4;;,,,",
"-;,414o;%%%;%%%%X*$*$;X;%>-;-4;4->>2$7eCNSmr-22;292222>-9222722222-2$22e2r22>2e22272X>>4>94>>>>,>,2,2*>4294>22>4X4>4>,8,;,;,$-%*",
"%-;;;-;-$%%$4$$$;-;--8;-,;44,-4>,$2$ooyNSDM-2e-22>42229222329732->32222222>e92>-o$*>$X2>9>42$>,$;;2>>>,,,>9,2>,$>;>>,>%$%;*4**;,",
"*;-;-;>;*;*;%,-;---;-,-8*%$$24>-222%..1CCFm,X2Xo>2%2-2e2e7297222722e22>2>229>9**X*X%-+>>2,>,>,8,$,o-;>;-->-;;,;,;*->;;-;$;$>$;--",
";X$$;*>4*-;44o*X*X**$$*$$*$%%%X$;2$o%XBCCDVy$*X$>9r29$4>92>>r-7232722272;%o.X.$*4-oo4X%%$o%$4-4$*-*oo****;;;*;;>2>84*%*X*$$o*+**",
"...o.o o....Xo..XoXo.o.....o.oXoXoXX2VNCCDDVz.oooo=$.oX;o*+4**$++--272>o.=..o::55aa5O= = o ..o*o.oX.... .o o.o...... o...o.o . *",
"OoO.O.o o.o**o=.1*1*=XXX*X%X%*%%*-2BAVCCFASFDBy.o.. ... ....o X.....o...qyza5dkdddvnnnNkaO@OO=Oooo.ooXX*OO:O:O:OOoOO===== =oOoOo",
"kddkkvvkdzkvvvvnnNnCMMNMzMvzzNnVnMVDVCSNFFSFDABMxxy:::OO:= ooOO=O .o.o*11a5dddkvkvvnnvvnnNzvnMnzzzzvkvkkkvddkkadknzNvvnvvvdkvk5k",
"vdvkvvvvvnvnvnvnCNNnNCCnCNCNNnNNCCDNCnCDFFDFFDDADVCACCCNCvkkkdkknvkkvk5azkkvCCCNCCCCCCSNnnNvNNNNCNvdvknvkknkvkkknnnnnNNvvkkknvkk",
"CNCCNCnSNCvCCNNSCSCCCCSNCSSSCDSDCSCCSCCFDFDDDDDDSFSSSSCNnnkvkdvkknvkvnvkvNNSVSSCCCCSNCCCNCCCvNvNNCNNnNNNCSSSNSSSnCCSNSNSCSSSCCSS",
"CCSNCNCNCSCCCCDAAAVADVVVAZAAADDASVFDFDAAAZAAABVASADCSDSSSSSVDVVVSADSSCSCDSSCSSSSSSDDSDDDDASCSADNDCCASDSDCSFDDDDDDDDDDCDDSCDNCNCC",
"xcccbclbjjqcgjxpgjgjjglggglcgjjlllgbjpgljcgjgxjgggxjxxxxxxgxxmcxxMMBBBBBBAVAVDADVAmMmMmBmBmBBmmBmMmMmBMZBBBBBBMBmBMADFDFDDDDVVBB",
"hlb8ggjlbjljljjlllccclclmlgggjcjllbgcclgjjjlclclcbcjllljxjlgxcglxgcgjpgjjxcgcjcgjgjghghljgjjpjhgjphgjgjgjggpg8gggrgmZVFDFFDAAmcc",
"bjgppeip4ppj9gpjgjjjglgjggggiggjpgggpggcigglijjgjgpgtgprpgpppppripipigipieggpppgegpgpgppggggggghjgegpr>pr88p7eei9r9xMVAFDFDBxjcc",
"pej9ewie9epii8e7i79epippppre9iiiieiipgpiiergwwe72722t7ttt7tt4ri7te87rettrei87r7227>2726e%7r292229>%2-2r22-922492224>rnDDFZZcjjcg",
"-72e9e49ee9iwe2www7e7e9r7wwe9eww9e792pw7ww6w272222<2<2-2272w722222w222>7>>>222<2222222&242222e422--r2222>22-272227-28NCFBcgg8g27",
"9299iee0ewewiieieew2eepewwie9iw73w427w729777<77-->8<<<226<<><2-22r2>2><72>2>>>22>222377w22228222%922>2229>22t22292794vSDZpgph297",
"797wweweeew7wewewewiwewe2ewpww9-ww9ww7277727677t272<2-72>9>>4$>;>;4,>2>9>>>>>>$2<2<27->>222%2222222272722>2%2,2227>28VNDAee922e7",
"e999eweiueue9eueue3egweiuieiewewg9w2i7wtw7w7e>7722722228>-*;>;*>>->>,>e>,>2>-22>22222$227>22t2t2t222>79722;2229>22928MCDZ7-22-72",
"297e9gw2eueeei2eeuweweee9ewwwewwwe9w77>77w7r77w>76#7e494-,*>-%->498>-;>>>42>>2-2>2<222>2-2>ee22722222922>-22242r2229>CCDB7222922",
"729>pieweiuhue0eieewewewu9e2u77wewewwww7w777w277r727799-4>,>,>>->$7>*>-$8-,>9>2>>2>72222>222222>t$22222292,2922299,28nSDV227r-22"
};
