/* XPM */
static char *_b7293372b7549d9decfa68ea38d2aa4SE6BgMA3KqpPifur[] = {
/* columns rows colors chars-per-pixel */
"64 64 149 2 ",
"   c #CB7500",
".  c #CD7C00",
"X  c #CF8205",
"o  c #D18504",
"O  c #D58906",
"+  c #DB8D04",
"@  c #D1860C",
"#  c #D68C0A",
"$  c #D88E0D",
"%  c #DB920B",
"&  c #DE9B0C",
"*  c #D18711",
"=  c #D38B1B",
"-  c #DB9214",
";  c #DD9E14",
":  c #D4901B",
">  c #DC961A",
",  c #DC9B1B",
"<  c #E08F03",
"1  c #E09C03",
"2  c #E1950A",
"3  c #E19414",
"4  c #E39E17",
"5  c #DFA014",
"6  c #E2A315",
"7  c #E2A21D",
"8  c #E5A91D",
"9  c #D69423",
"0  c #DB9522",
"q  c #DE9C22",
"w  c #D7982B",
"e  c #DD9B2B",
"r  c #DB9E36",
"t  c #E09627",
"y  c #E09B25",
"u  c #E99E24",
"i  c #E29D2C",
"p  c #DFA526",
"a  c #DFA22D",
"s  c #DEA635",
"d  c #DEA834",
"f  c #DCA23C",
"g  c #DFA838",
"h  c #E1A123",
"j  c #E9A226",
"k  c #E5AA20",
"l  c #E2A32B",
"z  c #EAA42C",
"x  c #E6AD2F",
"c  c #E1A332",
"v  c #EBA631",
"b  c #E3A934",
"n  c #E1A53A",
"m  c #E3AC3C",
"M  c #E8AE3A",
"N  c #EBB732",
"B  c #E7B03D",
"V  c #E9B53D",
"C  c #ECB93A",
"Z  c #DEA642",
"A  c #E4AE43",
"S  c #EAAE41",
"D  c #E3AD4B",
"F  c #E5B144",
"G  c #E9B444",
"H  c #ECBB45",
"J  c #E6B44C",
"K  c #E9B549",
"L  c #EBBA4D",
"P  c #F4B94D",
"I  c #E6B452",
"U  c #E8B554",
"Y  c #E6B956",
"T  c #EABB53",
"R  c #E7B75D",
"E  c #E6B95D",
"W  c #EABD5B",
"Q  c #F2BA53",
"!  c #E7BC60",
"~  c #EABE63",
"^  c #F2BC65",
"/  c #EEC14E",
"(  c #F1C14D",
")  c #EFC356",
"_  c #ECC15E",
"`  c #F1C25F",
"'  c #ECC264",
"]  c #EDC56B",
"[  c #EFC96F",
"{  c #F1C564",
"}  c #F8C664",
"|  c #F0C865",
" . c #F1C76C",
".. c #F3CA6E",
"X. c #F9CC6E",
"o. c #EDC773",
"O. c #EFCA73",
"+. c #EECD7B",
"@. c #F6C776",
"#. c #F2CC74",
"$. c #F9CD73",
"%. c #F2CE7A",
"&. c #F3CE7C",
"*. c #F7CF7C",
"=. c #F8CE78",
"-. c #EFD07B",
";. c #F7D076",
":. c #FAD076",
">. c #F5D17B",
",. c #F7D07A",
"<. c #F1D17D",
"1. c #F3D17F",
"2. c #F5D17D",
"3. c #F9D17B",
"4. c #FBD27D",
"5. c #EECE81",
"6. c #F1CF80",
"7. c #F1CF81",
"8. c #EDD082",
"9. c #EDD185",
"0. c #EFD48D",
"q. c #F3D180",
"w. c #F3D383",
"e. c #F5D282",
"r. c #F6D384",
"t. c #F3D585",
"y. c #F7D585",
"u. c #F6D687",
"i. c #F8D180",
"p. c #F8D581",
"a. c #FAD583",
"s. c #F3D68B",
"d. c #F5D788",
"f. c #F2D58D",
"g. c #F5D88B",
"h. c #F4D88C",
"j. c #F5D98C",
"k. c #F8D88A",
"l. c #F8DA8C",
"z. c #FBDA8C",
"x. c #F1D690",
"c. c #F1D892",
"v. c #F5DA93",
"b. c #F7DB94",
"n. c #F5DC94",
"m. c #FCDE95",
"M. c #F9DE9D",
"N. c #FADF9D",
"B. c #F5E3AA",
/* pixels */
"#.%.#.%.&.%.#.#.#.#.#.#.#.#.#.#.#.#.#.#.#.#.#.#.%.u.%.E 0 + ' 1.#.#.%.%.] o $ #.#.>.o.y Y #.#.#.#.#.#.%.%.&.%.#.=.$.$.=.i.e.*.#.",
"#.%.%.' V ' %.#.#.%.%.#.#.#.%.%.%.%.%.#.#.#.=.%.#.g.b.#.K T &.&.%.%.%.#.2.T L %.#.%.d.] ] #.%.%.%.%.%.%.&.&.%.#.$.$.$.$.z 3  .%.",
"%.%.u.{ 4 6 %.%.%.%.%.%.%.%.&.&.&.*.*.%.%.%.%.%.%.;.u.t.1.&.%.%.%.%.#.%.;.u.1.%.%.#.#.>.>.2.2.2.&.%.%.%.%.#.%.#.%.=.$.3.Q j  .%.",
"%.;.l.M. .T &.%.%.%.%.&.&.%.%.&.&.%.%.&.&.%.%.%.%.%.%.%.#.#.%.%.&.%.#.#.#...#.%.&.2.2.%.%.%.%.%.%.%.%.%.%.%.%.%.%.#.%.*.e.2.%.%.",
"%.;.p.u.k.( #.&.%.#.%.&.&.%.%.1.w.6.%.%.%.%.%.%.%.%.%.%.%.%.%.%.%.%.%.%.e.( #.&.%.>.%.%.&.&.1.&.%.%.&.%.%.%.&.&.&.&.&.&.%.%.&.&.",
"*.>.3.%.r.>.%.%.%.#.e.2.&.%.%.e.T b ] %.#.&.&.&.&.&.&.&.&.&.%.%.%.%.%.>.u.u.%.%.%.%.2.2.2.2.2.u.T , ' &.#.%.&.&.&.&.&.&.&.&.&.&.",
"%.%.>.2.%.2.%.%.%.%.T ..&.%.%.d.+.p T &.O.W O.&.%.&.&.&.%.%.%.%.%.%.%.2.2.%.%.%.#.1.K ] e.%.%.d.f.F _ %.+.T ] &.&.&.&.&.&.&.&.%.",
"&.%.%.>.>.%.%.%.#.1.{  .&.%.%.e.n.1.#.#.x.+.] &.&.#.%.&.&.&.%.%.&.*.%.%.2.%.#.#.#.2.#.#.&.%.%.e.h.1.%.#.c.9.] &.&.O.%.&.&.&.%.#.",
"W o.#.#.%.#.%.#.#.#.e.*.%.%.&.1.1.%.#.%.f.f.%.&.&.%.&.&.&.&.&.&.#.%.%.%.>.%.#.#.#.#.*.&.%.%.%.%.&.%.#.&.t.9.%.&.&.&.&.&.&.&.%.#.",
"7 K &.#.%.%.%.#.#.#.#.#.%.%.&.&.&.%.%.' n E &.%.&.&.&.&.&.6.&.&.%.&.%.%.>.%.#.#.#.#.#.#.%.%.#.%.&.%.1.E > F &.%.%.&.&.&.&.w.1.>.",
"1...#.%.>.%.#.#.#.#.#.#.%.%.&.&.&.%.w.W O b w.w.&.&.&.&.&.+.&.&.&.*.%.>.%.#.#.#.#.#.#.#.#.#.%.&.&.%.1.] q A w.w.6.&.&.&.%._ O.d.",
"#.%.=.>.%.%.%.#.#.#.#.#.%.%.6.w.6.&.&.h.1.O.] I o.&.%.&.+.7 _ 6.%.&.*.>.%.#.' O.#.#.#.%.#.#.&.6.&.&.&.s.t.1.! s ' 6.%.%.w.h T 1.",
"#.%.:.%.>.E @ D %.#.#.%.%.%.O.F ~ &.+.&.1.w.! : d w.%.#.t.] ' &.%.%.2.%.>.U   Z 1.#.#.#.#.%.O.c I 5.+.+.%.w.o.w s 6.%.#.w.1.O.#.",
"#.%.=.%.;.{ e I #.#.#.%.%.1.w.n n 5.+.+.#.s.B.' Y %.#.#.#.w.%.#.%.%.>.%.%.#.I ~ #.#.%.#.#.#.s.J A 5.+.+.#.t.B.O.' +.#.#.#.%.%.#.",
"%.%.=.=.$.3.>.O.+.#.#.%.%.#.v.w.o.+.+.+.+.%.s.9.%.O.#.#.#.%.#.%.*.>.%.%.$.>.{ ' +.#.#.#.#.#.g.t.+.+.+.-.+.#.w.w.+.O.O.#.#.#.#.#.",
"%.%.=.$.$.} j , W %.#.%.#.#.#.1.%.#.>.2.+.O.#.%.O.O.#.#.#.%.%.%.*.>.%.#.=.} z - F %.#.#.#.#.#.#.#.%.%.1.8.O.#.#.O.O.#.#.#.#.#.#.",
"%.%.=.$.=.p.^ t l %.#.#.#.#.#.#.#.%.I m ` %.#.1.%.O.#.#.#.#.%.%.*.%.=.$.$.l.=.c l %.#.#.#.#.#.#.%.] f q H #.%.w.%.O.#.#.#.#.#.%.",
"#.%.=.$.X.l.m.` T +.#.%.#.#.#.#.#.n @ @ 2 ' +.Y ' #.#.O.#.#.#.%.%.%.%.=.X.l.m.} { #.#.#.#.#.#.%.#.c * * + _ o.g J %.O.#.#.#.#.#.",
"#.%.$.$.X.:.4.>.#.&.&.#.#.#.#.1.O.J r = O W E X , O.O.O.%.%.#.%.%.%.%.%.X.X.:.=.#.%.&.#.#.#.#.1.#.W Z = O _ ! @ - O.O.#.&.%.#.#.",
"%.$.#.#.#.X.X.X.%.T Y %.#.#.#.1.h.e.W 0 , +.6.A m O.#.O.' ] #.%.%.%.%.%.#.X.X...%.G B %...#.#.#.b.d.' l c &.d.E T O...O.T T #.#.",
"..%.%.#.........>.T x +.#.#.#.#.u.b.%.' ] %.u.1.%.O...#.b & O.%.>.*.2.%.#.......>. .G #.#.#.#.#.u.b.1.[ +.#.1.2.%.O...1.A & [ #.",
"T O.&.%.#.#...#.%.u.%.#.#.#.#.#.%.2.w.1.#.#.#.#.#.#...2.t.T #.%.%.%.2.2.#.......#.e.1.#.#.#.#.#.#.;.1.%.#.#.#.#.#.#...1.s.' O.9.",
"8.%.&.&.O.%.#.....#.#...#.#.#.#.#.#.#.#.#.#.#.#.#.#...1./ / 1.#.%.2.*.2.%.......#.#.#.#.#.#.#.#.#.#.#.%.#.#.#.#.#.#...1.H N %.c.",
"%.#.%.&.&.#.#.#.#.#.%.#.#.#.#.#.#.%.%.#.#.%.%.#.#.#.#.1. .) %.%. .G 6.*.%.#.#.#.#.#.#.#.#.#.#.#.#.#.%.%.#.%.&.%.#.#...1.1.| #.O.",
"J &.%.&.%.#.#.$.#.#.#.#.#.#.#.#.#.#.#.#.#.&.+.#.#.#.#.%.u.1.#.#.e.#.%.%.%.%.#.#.#.#.#.#.#...#.#.#.#.#.#.#.&.' ] %.#.#.#.1.w.A O ",
"] &.%.%.%.#.$.%.%.#.#.#.#.#.#.#.#.#.#.#.%.~ # l %.#.#.%.%.%.#.#.%.*.%.%.#.#.#.#.%.#.#.#.#.%.O.O.#.#.#.#.>.E . q %.#.#.#.%.w.O.F ",
"%.#.#.#.$.$.$.{ { #.#.#.#.' o.#.#.#.#.#.%.] % b #.#.#.#.%.#.#.#.%.%.#.$.%.#.#.{ T #.#.#.] J ] O.#.#.#.#.%.#.c K #.O.#.#.%.&.t.t.",
"O.#.#.$.$.$.=.e.T #.#.#.] > m %.#.#.#.#.#.u.2.#.#.#.#.#.%.#.#.#.#.$.$.$.$.$.%.h._ #.#.#.#.q b %.#.#.#.#.#.2.u.#.#.#.#.#.#.%.+.+.",
"#.%.$.#.#.#.>.b.&.#.#.#.h.~ L #.#.#.#.#.#.%.%.#.#.#.#.#.] ' #.%.%.=.$.$.$.=.p.b.e.#.#...h.#.W #.#.#.#.#.#.#.#.#.#.#.#.#.#.#.%.%.",
"#.$.#.O...%.{ W #.#.#...%.%.#.#.#.#.#.#.#.#.#.#.#.#.#.%.= X ] >.%.%.$.$.$.=.T M #.%.#...#.#.#.#.#.#.%.#.#.#.#.#.#.&.d.6.#.#.#.#.",
"#.#.#.%.$.=.j + { %.#.%.#...#.#.#.#.#.#.#.#.#.#.#.#.%.;.] R O.#.#.#.%.=.$.>.v < { %.#.%.#.O.#.#.#.#.#.#.#.#.#.#.%.#.x H %.#.#.#.",
"....#.#.$.>.$.Q ..%.#.F Y %.#.#.%.%.#.#.#.#.#.#.%.=.%.=.#.T ] #.#.#.#.%.$.=.*...#.$.#.J ~ O.#.#.#.#.#.#.#.#.#.#.e.#.l 1 ] %.#.#.",
"#.#.#.&.w.e.2.e.%.2.s.A p +.%.] ' &.%.O.[ O.#.%.:.=.$.:.P 3 , ] O.O.#.w.w.%.#.%.%.%.#.l h #.#.#.#.#.#.#.#.#.%.#.%.M.*._ %.#.#.#.",
"%.%.e.T 6 L &.%.>.>.b.d.O.#.1.0.W &.%.O.O.O.#.>.=.=.$.4.l.^ y T %.#.e.T 6 T &.%.*.>.h.%.W #.%.%.#.#.#.#.#.%.%.#.#.e.#.l ' %.#.#.",
"%.%.d. .7 8 &.%.%.2.e.1.%.&.2.f.5.%.%.#.#.#.&.>.=.=.$.:.m.p.{ #.%.%.g.#.h k &.%.1.2.%.%.#.#.%.%.%.%.%.%.%.%.&.#.#.%.e.T _ 1.#.#.",
"%.;.k.M.#.{ &.%.&.%.2.2.2.e.e.%.%.%.%.#.%.=.2.&.%.$.$.$.$.:.%.#.%.:.k.M.#._ &.%.&.%.%.%.%.*.*.*.*.*.&.&.&.%.%.%.#.%.2.u.%.%.&.&.",
"%.>.3.3.u.( #.&.%.%.%.*.2.2.e.e.+.+.%.#.%.%.&.&.&.%.%.%.%.%.%.%.%.>.3.3.u.( #.&.%.%.%.*.*.*.*.*.%.%.%.%.%.%.%.%.%.%.%.%.%.%.&.&.",
"*.>.>.2.u.u.%.%.%.%.1.2.*.*.2.u.J , ] %.O.+.&.%.%.&.&.&.&.&.&.&.*.>.>.2.u.u.%.%.%.%.2.1.&.2.*.r.J , ] %.O.+.&.&.&.&.%.%.%.%.&.&.",
"3.3.*.e.2.%.%.%.#.%.G #.2.%.%.g.t.A ' %.+.T O.&.%.%.&.&.&.&.&.%.*.*.2.e.2.%.%.%.#.%.G O.2.%.%.g.t.A ' %.+.T O.&.%.%.%.&.&.%.&.&.",
"{ { %.%.%.%.#.#.#.2.#.#.&.%.%.e.h.1.%.#.c.5.O.&.&.O.%.&.&.&.%.1.e.%.%.%.%.%.#.#.#.2.#.#.&.%.%.w.h.1.%.#.c.+.O.&.&.O.%.&.&.&.&.%.",
"%.T &.2.%.#.#.#.#.#.*.%.%.%.&.&.1.%.#.&.t.w.%.&.&.&.&.&.&.%.2.K b %.#.#.#.%.#.#.#.#.*.%.%.%.&.&.1.%.#.&.t.w.%.&.&.&.&.&.&.&.&.%.",
"b.1.W ' %.#.#.#.#.%.#.#.%.&.&.1.&.%.1.I - I &.%.&.&.&.&.w.w.>.#.G O.#.#.#.#.#.#.#.%.#.#.%.&.&.1.&.%.1.I - I &.%.&.&.&.&.w.w.2.2.",
"*.t.A ; O.%.#.#.#.#.#.#.%.&.6.&.&.%.w.' , J w.w.6.&.&.&.+.' #.e.1.#.#.#.#.#.#.#.#.#.#.#.%.&.6.&.&.%.w.' , J w.w.6.&.&.&.+.' &.2.",
">.h.f.' #.%.' O.#.#.#.#.%.&.6.6.&.&.1.h.t.%.E s ' 6.%.%.O.6 _ &...#.#.#.#.#.' O.#.#.#.#.%.&.6.6.&.&.1.h.t.%.E s ' 6.%.&.O.7 ' e.",
"%.%.2.%.2.D   D 1.#.#.#.#.&.] a E 5.+.%.%.w.] 9 m w.%.#.u.%.O.%.%.%.%.%.>.D   D 1.#.#.#.#.&.] a E 5.+.%.%.w.] 9 m w.%.#.t.%.O.%.",
"#.%.=.%.;...I ' #.#.#.%.%.1.s.A J 8.+.+.#.s.B.] ' %.#.#.#.%.%.%.%.%.%.#.;...I ' #.#.#.%.%.1.s.A J 8.+.+.+.s.B.] ' %.&.%.#.%.#.#.",
"#.%.=.%.$.>.{ ' +.#.#.%.%.#.h.t.+.+.+.-.+.%.w.w.+.O.#.#.#.#.%.%.%.%.%.#.$.>.{ ' +.#.#.%.%.#.h.t.+.+.+.-.+.%.w.w.%.+.&.%.#.+.#.#.",
"#.%.=.$.:.} u - T %.#.#.#.#.#.%.#.%.%.1.5.O.#.#.O.#.#.O.#.#.%.%.%.%.%.$.:.} u - T %.#.#.#.#.#.%.#.%.%.1.+.O.%.%.O.#.%.%.#.+.#.#.",
"#.#.$.$.:.l.@.i b &.#.#.#.#.%.#.%.' r h L +.%.w.%.O.#.O.O.#.%.%.%.%.%.$.:.l.@.i b &.#.#.#.#.%.#.%.' r h L +.%.w.%.O.#.#.#.#.#.#.",
"#.#.#.#.X.l.m.} { #.#.%.#.#.#.%.] e * * % ] ] s Y %.#.O.O.#.%.%.%.%.%.$.X.l.m.} { #.#.%.#.#.#.%.] e * * % ] ] s Y %.#.#.#.O.#.#.",
"#.#.#.#.#.X.:.=.#.&.&.#.#.#.#.1.O.W f = # ] I X q +.O.O.6.%.#.%.%.%.%.$.X.X.:.=.#.&.&.#.#.#.#.1.O.W f = # ] I X q +.#.#.&.&.#.#.",
"#.#.$.#.#...X...%.M G &.#.#.#.>.b.u.W y b w.t.Y W O...O.K T #.#.%.%.%.#.#.X.X...%.M G %.#.#.#.>.b.u.W y b w.t.Y W O...O.K T #.#.",
"%.%.%.#.#.#.....2.' G %...O.#.%.u.b.1.[ +.#.1.2.%.O...1.b 5 #.#.#.%.%.%.#.......>.' G %.#.#.#.%.u.b.1.[ +.#.1.2.%.O...1.b ; O.%.",
">.2.%.#.#.#...#.#.e.%.#.#.O.#.#.#.>.1.%.#.#.#.#.#.#...2.t.' #.#.#.#.%.%.%.#...#.#.e.%.#.#.#.#.#.#.>.1.%.#.#.#.#.#.#...2.t.' #.%.",
"%.*.*.%.$.#.#.#.#.#...#.#.#.#.#.#.#.%.#.#.#.#.#.%.#...1.C C %.#.#.#.%.%.%.%.#.#.#.#.#.#.#.#.#.#.#.#.#.#.#.#.#.#.%.#...1.C C %.#.",
"G &.%.=.$.#.#.#.#.#.#.#.#.#.#.%.%.%.%.#.#.%.&.%.#.#...1.1.| #.#.....#.%.%.%.#.#.#.#.#.#.#.#.#.#.%.%.#.#.#.%.&.%.#.#...1.1.| #...",
"#.%.%.%.$.#.#.#.#.#.#.#.#.#.#.#.#.#.#.#.#.&.~ ] %.#.#.#.1.1.#.#.%.#.#.#.#.#.#.#.#.#.#.#.#.#.#.#.#.#.#.#.%.&.~ ] %.#.#.#.2.1.#.%.",
"*.%.%.%.$.$.#.#.#.#.#.#.#.%.O.#.#.#.#.#.2.I . c %.#.#.%.%.%.%.' b ' #.#.#.#.#.#.#.#.#.#.#.&.#.#.#.#.#.#.2.I . c %.#.#.%.%.#.#.#.",
"%.%.%.#.$.$.%.` W #.#.#.] J ] O.#.#.#.#.%.] l T #.#.#.%.%.#.#. .q K %.#.=.#.%.` W #.#.#.] J ] #.#.#.#.#.%.] l T #.#.#.%.#.#.#.%.",
"#.#.#.$.$.$.3.h._ #...#.] > F %.#.#.#.#.#.u.u.#.#.#.#.#.#.#.#.2.#.] #.#.$.$.2.h._ #...#.] > F %.#.#.#.#.#.u.u.#.#.#.#.%.#.#.#.#.",
"#.#.$.$.$.=.u.b.2.#.#.#.b.] ' #.#.#.#.#.#.#.#.#.#.+.#.%.1.%.#.#.#.#.#.$.$.=.>.h.2.#.#.#.b.] ' #.#.#.#.#.#.#.#.#.#.+.#.#.#.#.#.#.",
"#.#.$.$.$.=.K S %.#.#...#.#.#...#.#.#.#.%.#.#.#.O.#.&.] W #.#.#.#.$.$.$.$.%.#.#.#.#.#...#.#.#...#.#.#.#.#.#.#.#.#.#.%.#... ...#.",
"#.$.$.$.$.=.j 2  .#.#.#.#...#.#.#.#.#.#.#.#.#.#.#.%.U = # 4 ] %.#.$.%.%.%.&.%.#.#.#.#.+.O.#.#.#.#.#.#.#.#.#.#.#.#.%.%.#.%...L #.",
"#.$.=.#...%.%. .#.#.#.#.#.#.#.#.#.%.#.%.#.#.#.#.%.O.m 9 = O K &.#.#.#.#.&.E Y #.#.#.W m ] #.#.#.#.#.#.#.#.#.#.#.%.$.$.%.>.M.#.#."
};
