/* XPM */
static char *ithari[] = {
/* columns rows colors chars-per-pixel */
"64 64 229 2 ",
"   c #1A1616",
".  c #1B1817",
"X  c #1D1A1B",
"o  c #171414",
"O  c #211D1D",
"+  c #25201F",
"@  c #29211F",
"#  c #231F20",
"$  c #252121",
"%  c #2A2525",
"&  c #2E2929",
"*  c #2D2827",
"=  c #322D2B",
"-  c #362C28",
";  c #3A312E",
":  c #363231",
">  c #3A3635",
",  c #3E3836",
"<  c #3E3A39",
"1  c #47352E",
"2  c #51382E",
"3  c #423A36",
"4  c #4D3C34",
"5  c #433D3B",
"6  c #483A34",
"7  c #543D33",
"8  c #593E34",
"9  c #45403E",
"0  c #4B433E",
"q  c #5C4136",
"w  c #53433B",
"e  c #5B453B",
"r  c #5E483E",
"t  c #544036",
"y  c #63463B",
"u  c #644A3D",
"i  c #6B4B3D",
"p  c #69463A",
"a  c #714D3E",
"s  c #72503F",
"d  c #413E41",
"f  c #464241",
"g  c #4A4543",
"h  c #4E4946",
"j  c #4D4A49",
"k  c #494648",
"l  c #524944",
"z  c #5C4B44",
"x  c #524D4C",
"c  c #564943",
"v  c #55504E",
"b  c #5B524D",
"n  c #565251",
"m  c #5A5554",
"M  c #5E5B5A",
"N  c #5D5855",
"B  c #644C42",
"V  c #6B4D41",
"C  c #644F48",
"Z  c #6A5347",
"A  c #745344",
"S  c #7A5544",
"D  c #7C564A",
"F  c #7B5A4A",
"G  c #775849",
"H  c #635E5B",
"J  c #645A53",
"K  c #765D53",
"L  c #724F43",
"P  c #6B635B",
"I  c #696259",
"U  c #7A6459",
"Y  c #7D604D",
"T  c #6B6664",
"R  c #6D6B6B",
"E  c #686565",
"W  c #746B64",
"Q  c #766D69",
"!  c #7B726A",
"~  c #76706B",
"^  c #757473",
"/  c #7C7B7A",
"(  c #7A7774",
")  c #716F70",
"_  c #835D4B",
"`  c #825A46",
"'  c #845E52",
"]  c #84614D",
"[  c #8B624C",
"{  c #94674E",
"}  c #856453",
"|  c #8B6552",
" . c #8B6B5A",
".. c #886959",
"X. c #946952",
"o. c #9B6D54",
"O. c #946D5B",
"+. c #9B6E59",
"@. c #936557",
"#. c #9C725B",
"$. c #98715B",
"%. c #8D705F",
"&. c #A3745B",
"*. c #A6795C",
"=. c #AB7B5D",
"-. c #A5745A",
";. c #B07E5F",
":. c #A06F57",
">. c #866E62",
",. c #83746C",
"<. c #897468",
"1. c #947363",
"2. c #957A6D",
"3. c #9A7867",
"4. c #837B73",
"5. c #837E7A",
"6. c #8B7E74",
"7. c #967C72",
"8. c #9C7D71",
"9. c #A36F62",
"0. c #A37561",
"q. c #A57A63",
"w. c #AC7C63",
"e. c #AB7D6A",
"r. c #A57A68",
"t. c #B17F63",
"y. c #AA7E72",
"u. c #7F807F",
"i. c #83817E",
"p. c #8B847C",
"a. c #8A8176",
"s. c #958D7E",
"d. c #98847A",
"f. c #AC816B",
"g. c #A6816C",
"h. c #B38264",
"j. c #B4846B",
"k. c #BA896D",
"l. c #B8876E",
"z. c #A98877",
"x. c #B38671",
"c. c #B58B75",
"v. c #BB8C73",
"b. c #B68F79",
"n. c #BE9177",
"m. c #BC947C",
"M. c #B6917C",
"N. c #C08F76",
"B. c #C09177",
"V. c #C2957B",
"C. c #C4987F",
"Z. c #7F8181",
"A. c #848483",
"S. c #898783",
"D. c #8B8984",
"F. c #8D8D8B",
"G. c #938C83",
"H. c #9B8D84",
"J. c #928E8A",
"K. c #978781",
"L. c #93918D",
"P. c #9C948C",
"I. c #989185",
"U. c #959491",
"Y. c #999691",
"T. c #9C9A95",
"R. c #9E9D99",
"E. c #A5968D",
"W. c #BE9983",
"Q. c #B89683",
"!. c #A29B94",
"~. c #A19E99",
"^. c #AB9C95",
"/. c #B49F93",
"(. c #AA8F83",
"). c #A5A29D",
"_. c #AAA49C",
"`. c #AFA89F",
"'. c #B8A79C",
"]. c #A9A6A1",
"[. c #ADAAA3",
"{. c #A7A5A0",
"}. c #B2ADA5",
"|. c #B2AEA9",
" X c #BCACA4",
".X c #B5B0A6",
"XX c #B5B1AA",
"oX c #BAB5AC",
"OX c #BEB9AE",
"+X c #BAB1A7",
"@X c #BDB9B2",
"#X c #BBB7B0",
"$X c #C39B84",
"%X c #CA9C85",
"&X c #C39E89",
"*X c #C79A85",
"=X c #C5A18C",
"-X c #CDA18A",
";X c #D0A48D",
":X c #C6A592",
">X c #CBAC9A",
",X c #C8A796",
"<X c #D2AA96",
"1X c #CFB19F",
"2X c #C1BBAF",
"3X c #C8B4A8",
"4X c #D2B6A5",
"5X c #D4BCAC",
"6X c #D9B8A7",
"7X c #C3BEB2",
"8X c #CABDB3",
"9X c #CDB7AA",
"0X c #C6C1B4",
"qX c #CAC5B5",
"wX c #CEC9B6",
"eX c #CBC6BA",
"rX c #CEC9B9",
"tX c #C6C2B9",
"yX c #D5C2B3",
"uX c #DBC3B4",
"iX c #D2CDBA",
"pX c #DDCABB",
"aX c #D6C8B7",
"sX c #D6D1BE",
"dX c #E2CDBE",
"fX c #D4D0C6",
"gX c #E6D3C5",
"hX c #E0D5C8",
"jX c #E5E1D6",
/* pixels */
"hXjXjXeX@X@XfX@X@XfX@X@XtXfX|.{.[.{.{.).~.{.~.{.[.{.~.Y.L.G.L.G.G.G.p.p.a.a.a.4.u.u...u.Y u.u.I I I I U I I I I I I u.u.s.s.s.s.",
"|.#XXXfXfXhXfXoX@XfXoX@X@X@XXX|.[.[.{.{.~.~.~.{.[.).!.Y.L.G.G.D.S.p.p.a.a.4.4.4.u.u.u.Y u.I W I I I I I I I Y I a.s.M._.s.s.s.s.",
"XX|.{.[.[.|.7XoX@XfX|.@XfXtXXXXX}.[.[.{.~.~.~.].[.~.Y.J.D.p.p.p.p.p.a.a.a.p.s.4.a.a.s.a.a.s.s.s.u.Y I u.I u.s.s.s.s.s.s.s.s.s.s.",
"[.oXoXoX.X.X@XoXoXtX[.@XXX@XXX#X}.[.].].[.[.[.|.XX_.Y.J.D.G.p.p.p.G.P.G.s.`.s.4.W u.I I u.Y a.s.M.a.a.u.s.s.s.a.s.s.s.s.s.s.s.s.",
"T.T.).).`.OXoXXXoX@X|.oXXX[.[.|.oX#X#X|.[.{.~.~.).).Y.J.I.E.E.P.p.H.d.p.6.! W T I J I N v v v v v l l 0 h N u.u.s.s.s.s.s.s.s.s.",
"T.T.T.T.T._.XX.XoXXX[.XXfX[.{.{.!.Y.R.[.#X7X#X}.].^.}.3X_.G.5.5.E.H.G.! W I P P I I J m b v x 0 h 0 5 0 0 0 0 9 0 l I u.s.s.s.s.",
"[.T.T.T.T.[..X[.oX[.|.XXXX[.@X7X2X].!.L.J.L.!.}.8XeX7X].6.4.p.^.p.! W W I I P H I N N b v v v 0 0 5 5 0 0 0 5 9 5 5 3 5 w u.s.s.",
").L.P.Y.T.[.XX).oX].XX|.[.).T.T._.|.oXoX|.[.oXqXeX+X_.H.6.A.L.,.T T T I E J J N N Z b c z z r w h 0 h l 0 h 0 0 3 , 3 ; ; 4 c u.",
"_.L.L.Y.L.[.}._.oX{.oXXX#X~.~.!.P.P.J.G.).0X7X2X].E.D.S.5.,.Q T T T P U W U <.>.<.%.%.%.a.g.Y  .Y Y Z c w w c 4 3 5 9 3 , 3 3 0 ",
"[.).).!.~.|.|.].oX).@X].{.Y.P.!.!.T.!.!.`._.Y.L.S.K.D.4.4.! Q ! 2.8.g.z.M.m.m.C.m.m.m.m.m.k.h.k.k.h.$.Y Z e r u r w 4 t 3 5 3 9 ",
".XoXoXoXoXXX|.].XXR.@X].).T.L.P.P.P.P.`.`.s.G.G.H.H.H.d.(.(.(.W.W.W.m.=XC.m.C.=XW.C.m.C.m.V.V.n.m.k.k.h.h.*.*.*.h.{ [ s w 9 > 3 ",
"+XoX2X7X0X.X|.[.|.).@X].~.~.).!.!.P.P._.E.D._.3X3X3X,X=X&X*XW.W.W.m.$XC.C.C.=XC.C.C.C.C.V.V.V.n.n.k.k.h.h.h.;.;.h.o.h.{ { s w 5 ",
"oX2X0X0XtX[.[.].].).@X~.Y._.2XoX}.`.`.oX!.9XgXpXpXuX5X4X,X=X&X$XW.=X=XC.=XC.C.-XW.C.C.C.V.V.n.n.k.k.k.h.h.h.;.;.=.=.=.*.h.h.Y q ",
"oX2X2X0X0X].].).~.].@XT.Y.|.qXqX0X0X.X!.fXaXgXgXuX9X1X,X:X$XW.W.m.C.m.C.C.C.C.C.C.W.C.m.V.n.n.k.k.k.k.h.h.h.h.;.;.=.*.*.h.o.h.{ ",
"OXOX0XqX7X).).{.T.}.XXT.L.XXeXqXqX0X_.8XdXuXpXyX3X,X:XW.W.&X$X&X=XW.=X$X=XC.-X=X=XW.C.V.n.n.n.k.k.k.h.k.h.h.;.;.=.=.*.=.*.*.*.{ ",
"OX0X0XwX7X{.R.~.U.@X}.Y.L.oXiXrXqX'.'.pXdXdXyX5X>X,X:X=X&X&X$X&X$X=X$X=X=X=X=XC.C.C.m.m.n.k.n.n.k.k.h.h.h.;.;.;.=.=.=.h.h.*.h.{ ",
"OX0X0XwXXX).T.R.F.fX~.L.L.2XiXwX0XT.yXuXdXdXpXaX9X1X>X:X:X:X&X&X$X&X=X=X=X=X=X&X$X$XC.W.C.V.C.V.C.k.k.k.h.h.h.h.h.*.*.=.=.*.*.{ ",
"oX0XqXwX[.).L.~.L.fXR.L.L.tXiXiXoXI.yXuXdXgXjXdX5X5X1X:X>X:X:X:X=X$X&X:X-X&X&X&X=XW.m.Q.z.b.Q.$X$XC.m.m.k.k.h.h.h.*.*.*.*.*.*.{ ",
"OX2XqXwX).).J.T.U.eXU.s.U.qXiXiX`.E.uXdXdXaX'./.K.y.z.z.Q.(.W.&XW.W.$X:X=X$XM.c.z.g.8...U U U U I  . .g.g.h.h.g.h.*.*.*.*.$.$.{ ",
"0X0XqXwXR.).F.Y.T.0XU.L.T.wXiXiX.X'.0X'.!.p.! ! T Q ,.<.7.2.z.$X=XW.$X&X$XQ.z.O.<.g...U G Z C w w w 0 4 w b Z Y { g.g.*.*.*.g.$.",
"OX0XqX0XT.R.F.U.R.tXA.i.~.iXsXiX8X_.Y.S.4.! ,.,.~ <.2.7.7.3.y.b.m.m.W.W.m.b.e.1.1.1...U K Z q 7 w t 4 4 4 4 t t w s g.h.g.*.$.$.",
"OX0XqX0XY.T.F.L.).@Xu.i.{.sXsXiXXXE.P.P.s.d.d.7.7.7.7.2.7.d.z.x.b.b.n.c.l.e.#.+.O.| ] S L i u B u u s s Y s Z s r 4 4 Y g.g.*.a.",
"OX0XqXOXU.U.L.L.{.[.F.F.[.sXiXwX|.[.^.(.8.%.>.K K K K K >.1.y.z.M.M.b.l.w.+. ._ S i y q 8 8 8 7 t q q q s Y [ { [ Y u q q a.g.a.",
"OX0XqXXXU.L.U.L.[.{.u.s..XsXsXiX8XoX^.d.7.7.8.7.7.,.K B z C K 1.M.$X$Xc.*._ S i u q 8 2 2 2 2 y s Y [ Y s q s s Y [ { Y Y Y g.h.",
"2X0XwX[.U.F.F.U.|.R.) A.OXsXiXiXiX7XY.E.E.>.T C x b x c C z z K z.,X%Xb.&.[ _ G y 7 2 2 8 u D F F  .$.&.$.{ s p s s S Y [ Y g.M.",
"OX0XwX).T.Z.U.U.|.R.F.U.0XsXsXiXiX8XE.J.( ^.E.5.b h h C >.K G >.$X%X%Xb.r.+.#.' S A i y 8 8 B 4 - - - ; 2 i ] ] Y s s S { g.g.M.",
"2X0XwXR.R.Z.U.U.|.U.F.T.wXiXiXiXfX8X X/.].K.7.8.<.>.>.1.1.1.3.:X-X%X$Xv.w.&.&.X.@.$.` | S | 3.>.e ; - ; r w t t s s [ [ X.g.g.s.",
"2XqXqXY.U.Z.U.T.|.L.^ R.wXsXiXiXaXaX5X>X X^.d.3.O.O.O.9.1.r.6X6X;X%XB.l.w.&.&.&.{ +.e.1.| ` S ' ..] U F F A s s [ g.h.h.h.h.f.z.",
"2X0X0XL.L.u.U.U.[.F.u.Y.OXiXiXiXeXpXuX5X4X,XM.g.y.e.e.e.y.>XdX;X-X*XN.l.e.t.w.-.-.:.e.x.e.0.@.{ [ _ [ [ [ ` [ { h.h.k.k.k.c.c.c.",
"2XqX2XF.L.A.U.U.).U.U.).iXiXiXwXfX5X5X5X1X,X$Xb.c.x.x.Q.,XaX<X<X*XN.l.t.j.j.t.w.t.j.l.l.c.c.f.t.e.j.j.j.k.B.k.n.n.V.V.m.M.c.c.b.",
"2XqXoXD.F.Z.L.U.R.u.u.).iXiXiXiXaX8X4X>X,X&X$X$XW.m.Q.W.5X6X;X%XN.l.x.x.l.t.y.t.0.j.n.V.B.V.C.V.C.*X*X*XC.C.-XC.C.V.V.n.n.k.c.z.",
"0X0X.Xi.u.F.F.U.T.) u._.iXiXiXwXeX8X3X,X&X*X$XV.V.n.W.6XgX<X-XV.N.t.l.x.x.e.e.w.*.e.v.*X%X%X-X%X%X-X-X-X;X;XC.C.V.n.n.n.b.b.b.z.",
"7XqX{.F.u.F.F.U.U.F.L.[.iXiXwXwX8XtX3X=X&X$X$X$XV.N.4XdX<X-X*XV.N.y.t.y.t.e.e.9.:.=.v.V.C.%X-X;X;X;X;X-X%X%XC.C.N.N.v.c.x.c.z.z.",
"7XqX).Z.u.U.F.U.U.u.L..XiXiXwXwXfXtX8X,X&XV.v.B.1X6X6X;X<X>X*XN.l.N.N.e.w.t.t.-.{ 9.j.v.V.*XC.-X-X-X;XC.*X*XC.B.N.l.l.j.f.e.r.3.",
"7XqXR.Z.u.U.F.L.F.R L.OXiXiXwXwXyXeX2X,X$Xm.x.4XgX1X*X*X*X=X%XV.N.N.N.l.l.l.N.t.w.:.t.N.V.V.C.C.C.-XC.C.C.N.N.N.k.j.e.e.*.3.1.2.",
"7X0XU.Z.u.R.Z.L.s.u.F.2XiXwXwXwXaXtX2X,XQ.c.v.&X8X&XN.y.l.x.v.b.N.l.t.w.+.@.+.9.e.0.w.N.B.B.B.C.C.C.C.C.V.N.v.l.k.t.0.#.%. .>.<.",
"0X0XZ.Z.F.U.Z.L.Z.F.F.0XiXwXwXwXqXqX7X X/.W.:X,X<XQ.y.0.0.e.w.0.O.| A 1 & - 1 q ` ` :.N.B.N.k.k.N.N.h.N.N.;.l.t.f.*.$. . .....,.",
"0X@XF.Z.F.U.Z.U.u.) L.qXwXwXwXwXwXqX8X}.^.^.3X4X4X4X(.>.' ..' D y 8 q q p D _ ` S ` 9.N.B.k.j.h.=.;.;.;.;.;.w.-.o.O. ...}  .<.p.",
"qXoXZ.Z.U.L.u.L.^ u.U.wXwXwXwXqXqXqX0X|.K.6./.'./.(.8.K C C B B y y B G | 0.9.t.t.e.l.c.k.h.w.*.{ { { :.-.-.o.{ | } } Y |  .>.a.",
"0X|.u.u.U.L.u.L.u.u.T.wXwXwXqXwXwXqXqX}.5.T ,.S.,.! >.J B 8 B B 8 z B ' K | O.O.0.*.w.*.#.@.Y F ` S [ { { { [ _ Y Y Y } ..%.J C ",
"qX{.Z.Z.{.F.Z.U.^ u.~.wXrXwXwXqXwXqX0X8X_.6.p.i.Q T J z z D ' O.K y B B B C Z B V V K V G z r 6 t u ] [ [ [ Y F G Y ] ] ..Y 0 9 ",
"qXR.Z.Z.{.Z.Z.F.I u._.rXrXwXqXqXqXqXqXqX2X^.H.s.K.6.>.' @.9.9.9.0.' G A L B e e e e V G B u 4 t t i [ [ ] S F S F ] ] Y G r ; 9 ",
"tXU.Z.Z.).u.F.F./ u.[.rXrXrXwXqXwXiXqXqX0X@X X X^.K.2.' K D ' ' D D D D L B B e q 7 7 8 q s [ X.[ ` ] ] S G Y F ] ] Y u e 1 > , ",
"0XF.Z.F.R.u.F.F.u.i.XXrXrXqXwXrXqXwX0X0X7X8XoX X X'.y.y.9.9.@.@.@.@.@.@.' ' L L V V D } o.#.*.&.{ ] S s S F S F S i t t ; : : > ",
"7XF.u.F.U.u.F.Z.^ i.OXwXwXqXqXqXqXqX0X2XoX`.2X3X XE.y.3.r.9.r.9.y.y.x.e.9.@._ ` D ` { #.&.&.-.{ ] ` s s s s s i t 1 1 : : = = : ",
"OXZ.Z.F.U.u.U.u.^ S.2XqXqX0XqXqX0XqX2X2X}._.|.3X>XE.7.>.' _ ' _ _ _ D A V p L S [ +.&.&.&.#.{ [ s s s s i u t - - = % * @ @ % & ",
"XXZ.u.F.Z.u.R.u./ D.2X0X0X0X0X2X2X0X2X2X}.G.L.'.+X/.c.e.O.G Z u B y i A S _ { :.&.&.&.:.o.{ [ ` s i p q t - * % * * % % + @ % % ",
"[.Z.u.Z.F.u.R.u.u.J.0X0X0X0X0X2X0X2X0X2XT.^ E p.3X>XW.b.e.r.+.o.:.@.@.X.o.9.&.&.+.+.o.[ [ [ ` s i q 2 - @ @ % % % @ + # + % & & ",
").A.u.A.A.u.R.u.u.U.0X0X2X0X0X2X7X@X)./ ) ^ E T ^.>X,X&Xv.j.t.t.t.h.h.=.*.-.*.:.o.{ { [ [ S Z w 2 - @ + # % + + # + O O # % % % ",
"R.Z.u.L.u.u.T.u.~ u..XOXOXOX+X.XL./ E ) R R E H R /.W.M.l.h.w.t.t.;.;.;.=.*.*.o.{ { [ [ s i t & + + + + # # X X X X X O # % % % ",
"U.u.^ L.u.F.D.u.u.Y._.u.n x x b x E ^ ) H H j N n W z.e.q.w.;.w.;.=.=.=.-.o.o.{ { [ ` s q - % # X + + . X X . X X # $ % % % $ # ",
"U.u.u.F.u.F.u.E u.~ I j < d j 0 m ( ) M h 5 f x x j J 1.$.#.+.#.:.:.o.{ [ ] s s s p t - - @ # O X + X . X X O # % # # # O X O X ",
"F.D.u.U.u.p.u.n R ) M d < n x n / R E E P E E I m x f l C Z A S F S s p e t t 9 - - @ - $ $ # # + . . O X + % # X X X X X X O # ",
"F.A.u.D.) D.u.E E E j < x M M R E M M M n v f f f j k f x h 3 : ; ; - - * * * @ * @ O + # # % $ + X . . O + # O X # $ O X X % = ",
"D.u.u.u.R u.E m k m j d M M M n j k f < > > : : g x x n 4.x 3 : & * % % + * = + + + O O O X $ $ + O . . . + + # # X X X $ & = & ",
"u.u.G.) E ^ ^ j k n j d n M j f 5 < > : : : > v n x M M ].g g 5 > = & % % = + + O O O . O X # % @ O O . . # # X X X X $ : : & & ",
"u.u.R M M L.R h d j x n n f 9 5 < < > > , 9 n k j H R n p., j k f f < g I > & % # O X X X X O $ $ O X   X O # X X % $ = = & & : ",
"E E E M m n h k f d N n h d 9 5 5 < < 5 f n f k n m 9 p.D.& 9 k k f g E 5 : = $ O X   X X X X # # X     X X X # # % : & & & & & ",
"E M M m n n k f d x x f 5 5 5 5 5 9 f n n f f x n f < P.h % < g g f T.h > & % % $ # X X X X X X O X X X X X # $ % : & & & & % # ",
"M n n n x j f 9 x j f d 9 9 9 9 f j M x f f n n f , 9 _.; ; f f M ~ h + % % # % & $ X X X X   X X X X X X X X % & & % % & % # $ ",
"m n n x h g < 0 n n v j h h g g v m v f f j M f , : R P.* < f n {.j % $ % & & & & % # O #     X X   X X O O % & $ % $ $ $ # # $ ",
"n n j h g 9 9 M N n n x h 0 h n m v 9 9 v L.m < < < i.I > 5 k D.g : < < < > : = & % $ # X         X X X X % % $ $ $ $ O X # # # ",
"x x j h f < m M n v h g 9 g x m j f 5 n {./ g 9 < h +XJ < f v A.> < < < < > : : & % $ $ X   o   X X X X $ % $ $ # # X X X O X X ",
"h g 9 9 < g I n v 0 9 5 9 x n x f 9 n |.p.v 9 < < < p.: < f p.M d > < < < < : = & $ $ # X   o   X   X $ $ O # X X X X X X X X X "
};
