/* XPM */
static const char *riodejaneiro[] = {
/* columns rows colors chars-per-pixel */
"64 55 193 2 ",
"   c #76386E",
".  c #7C4273",
"X  c #7B4C77",
"o  c #833564",
"O  c #853865",
"+  c #863C6A",
"@  c #883E68",
"#  c #85456F",
"$  c #8B456D",
"%  c #8C4B6E",
"&  c #844473",
"*  c #894571",
"=  c #8C4E73",
"-  c #834C79",
";  c #8A4F78",
":  c #904F71",
">  c #83527C",
",  c #8B577A",
"<  c #865A7F",
"1  c #8D5A7A",
"2  c #8D5175",
"3  c #925474",
"4  c #925C75",
"5  c #935B7A",
"6  c #995B79",
"7  c #935679",
"8  c #89667E",
"9  c #976476",
"0  c #986077",
"q  c #95637D",
"w  c #9A647B",
"e  c #9C6B7D",
"r  c #9A707E",
"t  c #A3767F",
"y  c #875C84",
"u  c #8B5D82",
"i  c #8A5581",
"p  c #925F80",
"a  c #8C6282",
"s  c #8E6885",
"d  c #8D6689",
"f  c #926483",
"g  c #9B6681",
"h  c #946C84",
"j  c #9C6C83",
"k  c #946C8A",
"l  c #8F7187",
"z  c #8D728D",
"x  c #967184",
"c  c #9C7485",
"v  c #9E7C86",
"b  c #93738C",
"n  c #9B748B",
"m  c #95798F",
"M  c #9C7B8D",
"N  c #947B91",
"B  c #9C7D92",
"V  c #A07584",
"C  c #A37B86",
"Z  c #A3758A",
"A  c #A37C8B",
"S  c #A07F91",
"D  c #A27D98",
"F  c #9C828E",
"G  c #958093",
"H  c #9B8495",
"J  c #9C8A95",
"K  c #9B8698",
"L  c #9E8C9B",
"P  c #9F9197",
"I  c #9E9399",
"U  c #A88087",
"Y  c #A4838D",
"T  c #AA858A",
"R  c #AE8B8E",
"E  c #B18D8D",
"W  c #A28493",
"Q  c #A38B94",
"!  c #AA8C93",
"~  c #A2819B",
"^  c #A28C99",
"/  c #B08F90",
"(  c #B08E9A",
")  c #A29196",
"_  c #AC9296",
"`  c #A2939C",
"'  c #AC959B",
"]  c #A4999E",
"[  c #AC9B9D",
"{  c #B49494",
"}  c #B99897",
"|  c #B0969A",
" . c #B49A9B",
".. c #BA9C9B",
"X. c #BCA09F",
"o. c #A38FA0",
"O. c #A494A0",
"+. c #AB94A1",
"@. c #A69AA2",
"#. c #AC9CA3",
"$. c #B29DA2",
"%. c #BA9FA0",
"&. c #B29CAB",
"*. c #AEA4A5",
"=. c #AFA8A7",
"-. c #ADA3A9",
";. c #AFA9AA",
":. c #B4A3A4",
">. c #BCA4A4",
",. c #B4A8A7",
"<. c #B3A4AC",
"1. c #B9A3AA",
"2. c #B4ABAB",
"3. c #BCACAC",
"4. c #B5B0AE",
"5. c #B9B0AF",
"6. c #B6ADB0",
"7. c #BAAEB1",
"8. c #B6B0B2",
"9. c #BBB4B3",
"0. c #BEB8B6",
"q. c #BEB4B8",
"w. c #BEBAB8",
"e. c #C0A5A4",
"r. c #C1A8A6",
"t. c #C2ACAB",
"y. c #C3B0AF",
"u. c #C8B0AE",
"i. c #C4ADB3",
"p. c #C2AFB8",
"a. c #C3B4B3",
"s. c #C9B5B4",
"d. c #C2B8B7",
"f. c #CAB9B7",
"g. c #C2B5BA",
"h. c #C3BCBB",
"j. c #C9BBBB",
"k. c #C9B4BE",
"l. c #C6C0BE",
"z. c #CBC0BE",
"x. c #CEBDC3",
"c. c #C7C1C1",
"v. c #CBC4C2",
"b. c #CEC9C6",
"n. c #CEC6C8",
"m. c #CFCBC9",
"M. c #D1C5C5",
"N. c #D1C9C7",
"B. c #D1C6C9",
"V. c #D3CDCB",
"C. c #D9CDCB",
"Z. c #D5D1CE",
"A. c #D9D0CF",
"S. c #D4CFD0",
"D. c #D7D3D0",
"F. c #DAD5D2",
"G. c #DDD9D6",
"H. c #DFDBD8",
"J. c #E0DAD7",
"K. c #E2DDDA",
"L. c #E2DDDA",
"P. c #E5E1DF",
"I. c #E5E1DE",
"U. c #E7E4E1",
"Y. c #E7E3E0",
"T. c #EAE6E3",
"R. c #E9E5E2",
"E. c #EDE9E6",
"W. c #EDEAE8",
"Q. c #EFEDEA",
"!. c #F0EDEB",
"~. c #F3F1ED",
"^. c #F4F2EE",
"/. c #F4F1EE",
"(. c #F6F4F1",
"). c #F6F4F0",
"_. c #F9F6F3",
"`. c #FBFBF7",
"'. c #FAF8F5",
"]. c #FBFAF6",
"[. c #FCFBF9",
"{. c #FCFCF8",
"}. c #FDFDFA",
"|. c #FEFDFA",
" X c #FEFDFB",
".X c #FEFEFB",
"XX c #FFFEFB",
"oX c #FFFEFC",
"OX c #FFFEFD",
"+X c #FFFEFE",
"@X c white",
"#X c #FFFEFF",
"$X c #FEFEFB",
/* pixels */
"@X@X@X@X@X@X@X@X@X@X@X@X@X@X@X@X@X@X@X@X@X@X@X@X@X@X@X@X@X@X@X@X@X@X@X@X@X@X@X@X@X@X@X@X@X@X@X@X@X@X@X@X@X@X@X@X@X@X@X@X@X@X@X@X",
"@X@X@X@X@X@X@X@X@X@X@X@X@X@X@X@X@X@X@X@X@X@X@X@X@X@X@X@X@X@X@X@X@X@X@X@X@X@X@X@X@X@X@X@X@X@X@X@X@X@X@X@X@X@X@X@X@X@X@X@X@X@X@X@X",
"@X@X@X@X@X@X@X@X@X@X@X@X@X@X@X@X@X@X@X@X@X@X@X@X@X@X@X@X@X@X@X@X@X@X@X@X@X@X@X@X@X@X@X@X@X@X@X@X@X@X@X@X@X@X@X@X@X@X@X@X@X@X@X@X",
"@X@X@X@X@X@X@X@X@X@X@X@X@X@X@X@X@X@X@X@X@X@X@X@X@X@X@X@X@X@X@X@X@X@X@X@X@X@X@X@X@X@X@X@X@X@X@X@X@X@X@X@X@X@X@X@X@X@X@X@X@X@X@X@X",
"@X@X@X@X@X@X@X@X@X@X@X@X@X@X@X@X@X@X@X@X@X@X@X@X@X@X@X@X@X@X@X@X@X@X@X@X@X@X@X@X@X@X@X@X@X@X@X@X@X@X@X@X@X@X@X@X@X@X@X@X@X@X@X@X",
"@X@X@X@X@X@X@X@X@X@X@X@X@X@X@X@X@X@X@X@X@X@X@X@X@X@X@X@X@X@X@X@X@X@X@X@X@X@X@X@X@X@X@X@X@X@X@X@X@X@X@X@X@X@X@X@X@X@X@X@X@X@X@X@X",
"@X@X@X@X@X@X@X@X@X@X@X@X@X@X@X@X@X@X@X@X@X@X@X@X@X@X@X@X@X@X@X@X@X@X@X@X@X@X@X@X@X@X@X@X@X@X@X@X@X@X@X@X@X@X@X@X@X@X@X@X@X@X@X@X",
"@X@X@X@X@X@X@X@X@X@X@X@X@X@X@X@X@X@X@X@X@X@X@X@X@X@X@X@X@X@X@X@X@X@X@X@X@X@X@X@X@X@X@X@X@X@X@X@X@X@X@X@X@X@X@X@X@X@X@X@X@X@X@X@X",
"@X@X@X@X@X@X@X@X@X@X@X@X@X@X@X@X@X@X@X@X@X@X@X@X@X@X@X@X@X@X@X@X@X@X@X@X@X@X@X@X@X@X@X@X@X@X@X@X@X@X@X@X@X@X@X@X@X@X@X@X@X@X@X@X",
"@X@X@X@X@X@X@X@X@X@X@X@X@X@X@X@X@X@X@X@X@X@X@X@X@X@X@X@X@X@X@X@X@X@X@X@X@X@X@X@X@X@X@X@X@X@X@X@X@X@X@X@X@X@X@X@X@X@X@X@X@X@X@X@X",
"@X@X@X@X@X@X@X@XXXXXXX@XXX@X@X@XXX@XXXXX@X@X@X@X@X@X@X@X@X@XXXXXXXXX@X@X@X@XXXXX@X@XXXXX@X@X@X@X@X@X@X@X@X@X@X@XXXXX@X@X@X@X@X@X",
"XX@XXX@XXX@X@X@XXXXXXXXXXXXXXX@XXXXXXXXXXXXX@XXX@X@X@XXXXXXXXXXXXXXX@X@X@XXXXXXXXXXXXXXXXXXXXXXXXXXX@X@XXX@X@X@XXXXXXXXXXXXX@X@X",
"XXXXXXXXXXXXXXXXXXXXXXXXXXXXXXXXXXXXXXXXXXXXXXXX@XXXXXXXXXXX@XXX@XXX@X@XXXXXXXXXXXXXXXXXXXXXXXXXXXXXXXXXXXXXXXXXXXXXXXXXXXXXXXXX",
"XXXXXXXXXXXXXXXXXXXXXXXXXXXXXXXXXXXXXXXXXXXXXXXX@X@X@XXXXXXXXXXXXXXXXXXXXXXXXXXXXXXXXXXXXXXXXXXXXXXXXXXXXXXXXXXXXXXX@XXXXXXXXXXX",
"XXXXXXXXXXXXXX@XXXXXXXXXXXXX@X@XXXXXXXXXXXXXXXXX@X@X`._.^.T.H.I.F.H.F.W.'.`.[.XX@XXXXXXXXXXXXXXXXXXXXXXXXXXXXXXXXXXXXXXXXXXXXXXX",
"XXXXXXXXXXXXXXXXXXXXXXXXXX@XXXXXXXXXXXXXXXXXXXXX`.!.H.h.v.9.*.<.@.#.I 9.g.B.G.(.XXXXXXXX@XXXXXXXXXXXXXXXXXXXXXXXXXXXXXXXXXXXXXXX",
"XXXXXXXXXXXXXX@XXXXXXXXXXXXXXXXXXX@XXXXX@X@XXX~.F.2.` ` ;.2.@.L G ` #.O.L H #.v.~.[.XXXXXXXXXXXXXXXXXX@XXXXXXXXXXX@XXXXXXXXX@X@X",
"XXXXXXXX@XXXXXXXXXXX@XXXXXXXXX@XXXXXXXXX@X[.Q.m.6.-.z L #.o.N N b b k m ` H ^ ^ 9.T.`.XXXXXXXXXXXX@X@X@XXXXXXXXXXXXXXXXXXXXXXXXX",
"XXXXXXXXXXXXXXXXXXXXXXXXXXXXXXXXXXXXXXXXXX(.S.-.` L L L N G K 2.<.L N u b K s m ^ -.D.^.[.XXXXXXXXXXXXXXXXXXXX@XXXXXXXXXXXXXXXXX",
"XX@XXXXXXXXXXXXX@XXXXXXXXXXX@XXXXXXXXXXX~.V.2.@.;.@.K K m 6.b.D.H.F.V.+.a u s B W ' #.h.`.XX@X@XXXXXXXXXXXXXXXXXXXXXXXXXXXXXXXXX",
"XXXXXX@XXXXXXXXXXXXXXXXXXX@XXX@XXXXXXX`.G.#.2.;.-.` N @.8.c.l.b.m.V.m.h.<.b s H ' H M J K.XXXXXXXXXXXXXXXXXXXXXXXXXXXXXXXXXXXXXX",
"XXXXXXXXXXXXXXXXXXXXXXXXXXXXXXXXXXXXXX!.6.G ` @.O.@.*.2.v.G.L.I.Y.U.I.F.4.` B u a k M ^ V.`.@X@X@XXXXXXXXXXXXXXXXXXXXXXXXXXXXXXX",
"XXXXXXXXXXXXXXXXXXXXXXXXXXXXXXXXXX`.(.D.K N ` ` @.q.n.V.F.L.H.H.T.T.T.T.E.G.h.#.k h h ] 0.W.XX@XXXXXXXXXXXXXXXXXXXXXXXXXXXXXXXXX",
"XXXXXXXXXX@X@XXXXXXXXXXXXXXXXXXX@XXXV.9.` ` ` -.D.k.d X k &.<.&.#.&.+.~ k f D n.p.b M M 7.h.[.@XXXXXXXXXXXXXXXXX@X@X@XXXXX@XXX@X",
"XXXXXXXXXXXXXXXXXXXXXX@XXXXXXXXX@XXXI.q.@.` K L ~ > k B - . > i > - .   - f u . k h Q ^ Q V.XX@X@X@XXXXXXX@XXX@XXXXXXXXXXXXXXX@X",
"XXXXXXXXXXXXXXXXXXXXXXXXXXXXXXXX@XXXH.6.^ ` ` b y < > B < u a B m u i - < D s & . , M ) Q H.XX@XXXXXXXXXXXXXXXXXXXXX@X@XXXXXXXXX",
"XXXX@XXXXXXXXXXXXXXXXXXXXXXXXXXX@XXXH.*.] ` K G ^ <.s a #.#.] 2.@.b m ` n u B f h B M [ ) v.[.@XXXXXXXXXXXXXXXXXXXXXXXXXXXXXXXXX",
"XX@XXXXX@XXX@XXXXXXXXXXXXX@XXXXXXXXXF.-.@.N m ` 6.] <.#.<.7.V.l.G.v.,.` ' W ^ M #.M 8 ! :.d.XX@XXXXXXXXXXXXXXXXXXXXXXXXXXXXXXXXX",
"XXXXXX@XXXXXXXXXXXXX@XXXXXXXXXXXXX`.v.] ` J K 2.F.V.h.c.b.0.2.Z.L.v.9.v.c.<.7.V.3.n f Y [ a.[.XXXXXXXXXXXXXXXXXXXXXXXXXXXXXXXXXX",
"@X@XXXXXXXXXXXXXXXXXXXXXXXXXXXXX@X`.b.#.` ] ^ <.F.Y.L.H.l.2.d.v.V.V.9.h.V.V.D.V.2.n c ' _ ,.`.XXXXXXXXXXXXXX@XXXXXXXXXXXXXXXXXXX",
"XXXXXXXXXXXXXXXX@XXXXXXXXXXXXX@X@X`.v.` L ` ^ J 2.b.F.v.*.2.V.c.v.V.h.[ 0.c.c.9.$.g ! M c 3.`.XXXX@XXXXXXXXXXX@XXXXXXX@X@X@XXXXX",
"XXXXXXXXXXXXXXXXXXXXXXXXXXXXXXXX@X`.V.8.#.2.@.<.) [ m.h.] c.q.8 +.` b.) 2.h.] $.F Q #.$.F g.`.XX@XXXXXXXXXXX@XXXXXXXXXXXXXXXXXXX",
"XXXXXXXXXXXXXXXXXXXXXXXXXXXX@XXX@XXXG.9.<.` q.J 8.` h.P 7.m.G.v.h.n.V.<.#.,.<.` 7.2.Q Q $.v.`.@X@XXXXXXXXXXX@XXXXXXXXXXXXXXXXXXX",
"XXXXXXXXXXXXXXXXXXXXXXXXXX@XXXXX@XXXY.<.l #.<.2.2.*.c.<.` v.H.!.T.H.V.2.^ Q #.#.#.:.F +.W c.XX@X@XXXXXXXXXXXXXXXXXXXXXXXXXXXXXXX",
"@XXXXXXX@XXX@XXXXXXXXXXXXXXXXX@XXXXX!.#.a s F ) ` [ #.M ) h.V.K.L.Z.9.[ x ! W M A A Y h q v.`.XX@XXXXXXXXXXXXX@XXXXXXXXXXXXXXXXX",
"@XXXXXXXXX@XXXXXXXXXXXXXXXXXXXXXXXXX`.n.s a Q ) ^ [ :.H ,.v.L.I.H.F.v.7.A W ! c j j ! Z W T.XXXXXXXXXXXXXXXXXXXXXXXXXXXX@XXXXXXX",
"XXXXXXXX@X@XXXXXXXXXXXXXXXXXXXXXXXXXXXV.B m B M W Q _ ' W ^ 1.j.M.x.1.W A h ! $.g j 5 j :.(.XXXXXXXXXXXXXXXXXXXX@X@XXXXXXXXXXXXX",
"XXXXXXXXXXXXXXXXXXXXXXXXXXXXXXXXXXXXXXY.#.h W M h W Q k W j.B.g.g.n.B.1.f 1 Z A A Z q q v.`.XXXXXXXXXXXXXXXXXXXXXXXXXXXXXXXXXX@X",
"XXXXXXXXXXXXXXXXXXXXXXXXXX@XXXXXXXXXXX).7.b n f x M F Q h +.7.i.k.i.,._ 1 Y j 5 Z 5 3 ! Y.[.XX@XXXXXXXXXXXXXXXXX@XXXXXXXXXXXXXXX",
"XXXXXXXXXXXXXXXXXXXXXXXXXXXX@X@XXX@XXX`.F.W f a B n x 3.Q n M f = q Y ! [ | g 5 7 3 5 :.).XXXX@X@XXXXXXXXX@XXXXXXXXXXXXXXXXXXXXX",
"XXXXXXXXXXXXXX@XXXXXXXXXXXXXXX@X@XXXXXE.9.' W h k ; 1 :.$.A n , & , A T  .( 5 $ = 3 Y a.'.XXXXXX@X@X@X@X@XXXXXXXXXXXXXXXXXXXXXXX",
"XXXXXXXXXXXXXX@XXXXXXXXXXXXXXXXXXX~.v.2.[ 2.2.Y f & ; Y ! ! n 5 1 5 A Y  .A 5 3 5 C _ :.v.E.`.XXXX@X@X@XXX@XXXXXXXXXXXXXXXXXXXXX",
"XXXXXXXXXXXXXXXXXXXXXX[._.^.!.H.c.5.*.2.2.9.v.:.W 1 1 M Y ! C M g g c Y  .A w q q ! 3. ._ %.t.N.!.'.`.XXXXXXXXXXXX@X@X@X@XXXXXXX",
"XXXXXXXXXX[.`.Q.L.L.D.l.h.c.9.8.*.,.5.h.h.w.v.0.$.Y A A ! A C Z 5 q Y A  .A j Y ' g.v.g.>. . . .>.a.j.z.C.K.^.`.`.XXXXXXXXXXXXXX",
"XXXXXXXX!.F.b.v.v.h.0.4.0.9.2.8.5.0.h.3.2.v.b.c.! q 1 j A ! Y V e A ! { Z 3 % C 3.v.l.N.g.l.v.a.3.a.a. .>.>.a.v.M.K.!.).`.XXXXXX",
"@XXXXXI.h.h.l.m.Z.Z.h.*.2.9.0.v.v.9.8.[ 0.V.Z.c.' q # * 2 5 g q g g 5 = @ $ % e j.v.V.h.:.3.z.b.v.l.t.3.3.3.d.v.s.r.y.v.J.(.XX@X",
"XXXXE.8.9.Z.F.L.K.L.V.9.4.2.v.Z.V.b.9.2.c.Z.V.v.' j # = $ + o o o o o @ $ 3 3 c l.F.v.N.a. .y.l.v.N.V.j.v.N.H.L.V.v.>.r.3.j.!.XX",
"XX!.0.2.h.V.H.Y.I.K.V.b.h.0.v.F.Z.L.Z.V.H.J.H.d._ c = q 3 $ @ o o o O : 3 6 % c a.L.V.c.v.3.d.V.V.N.v.N.V.Z.G.L.H.F.v.r.3...M.[.",
"_.V.,.2.c.Z.Z.F.H.H.v.h.9.2.a.b.V.V.G.Z.D.b.0.2.! c q w c w % O O O % 0 w 3 % e  .v.b.V.F.G.H.D.V.v.g.Z.V.F.I.Z.H.V.v.v.s.>.>.T.",
"(.v.4.0.b.V.V.v.F.V.b.0.[ ' 2.h.v.v.F.Z.T.I.V.v.3.| r e c C 3 $ $ $ w e e 3 9 V ! v.L.F.I.I.T.H.F.M.f.l.A.V.F.H.F.N.V.s.x.j...M.",
"I.=.0.h.V.V.b.c.V.V.l.5.[ ' 2.l.v.V.L.D.Y.E.H.Z.a.:. . .R T w % : 3 g 9 V U E %.h.Z.H.Z.L.Z.I.F.v.s.r.j.j.h.M.M.V.F.M.C.j.t.r.j.",
"l.;.2.h.m.V.0.9.l.h.d.,.,.,.,.c.V.F.I.V.H.I.H.V.2._ {  .{ V T w w w 5 C  . .{ 3.c.v.F.V.Z.V.J.H.v.s.{ ..f.r.s.j.z.j.v.j.j.r...a.",
"w.8.=.0.h.c.2.2.5.2.:.[ ,.:.:.h.F.I.T.F.Z.H.F.V.d.>. . . .! T C e C t T  .{ X.y.c.Z.H.F.F.L.G.I.N.t.} { r.r.X.X.r.t.s.t.r.r.} >.",
"8.2.2.9.9.h.*.*.$.Q _ Y ' :.[ h.I.I.Y.H.V.F.F.H.l.3. .{ R  ...{ T T E { / ..>.a.v.I.F.F.H.I.U.Y.I.M.} R ..} { >.r.r.r.r.e.{ { X.",
"3.2.8.*.0.d.,.[ ! ' ! v _ ,.5.Z.E.F.H.F.N.Z.A.H.V.h.t.{ R } { } { { { { { ..t.l.j.H.F.F.L.F.I.L.H.F.t.e.} X.{ r.r.e.....r.{ u.X."
};
