/* XPM */
static const char *singe256x256[] = {
/* columns rows colors chars-per-pixel */
"58 64 160 2 ",
"   c #090709",
".  c #0C0A0C",
"X  c #110E0F",
"o  c #110F10",
"O  c #141212",
"+  c #191616",
"@  c #1A1718",
"#  c #1C1919",
"$  c #261B16",
"%  c #2B1D17",
"&  c #211D1E",
"*  c #2A1D18",
"=  c #301F17",
"-  c #3C271D",
";  c #252122",
":  c #2A2526",
">  c #2A2728",
",  c #2E2A2A",
"<  c #312C2D",
"1  c #312F31",
"2  c #363232",
"3  c #3A3535",
"4  c #3A3738",
"5  c #3E3A3A",
"6  c #40271C",
"7  c #4A2C1E",
"8  c #55311F",
"9  c #402B21",
"0  c #5F3520",
"q  c #523526",
"w  c #413C3D",
"e  c #623721",
"r  c #653821",
"t  c #6C3D25",
"y  c #76452B",
"u  c #79462C",
"i  c #7D4A2F",
"p  c #764B33",
"a  c #464142",
"s  c #494445",
"d  c #4B4748",
"f  c #4C494A",
"g  c #524D4D",
"h  c #575052",
"j  c #5A5355",
"k  c #5D595A",
"l  c #635B5D",
"z  c #665E60",
"x  c #6A6264",
"c  c #6F6669",
"v  c #6B6869",
"b  c #656364",
"n  c #726D6E",
"m  c #716F70",
"M  c #7A7173",
"N  c #7F7578",
"B  c #7D7B7B",
"V  c #824D31",
"C  c #865134",
"Z  c #895437",
"A  c #82563B",
"S  c #925D3E",
"D  c #8F644E",
"F  c #956646",
"G  c #986544",
"H  c #9B6847",
"J  c #9F6C4A",
"K  c #9A6F53",
"L  c #A5734F",
"P  c #A77652",
"I  c #A97955",
"U  c #AB7C58",
"Y  c #837A7C",
"T  c #AF825D",
"R  c #B0835D",
"E  c #AD8360",
"W  c #B28560",
"Q  c #B58B64",
"!  c #B88E67",
"~  c #B88F68",
"^  c #BA936B",
"/  c #A28475",
"(  c #BF9971",
")  c #C19C74",
"_  c #C49F7A",
"`  c #C5A179",
"'  c #C9A67E",
"]  c #887E82",
"[  c #818081",
"{  c #8A8183",
"}  c #8B8688",
"|  c #8E8C8D",
" . c #908689",
".. c #948B8E",
"X. c #9A999A",
"o. c #B49787",
"O. c #B69883",
"+. c #A39B9C",
"@. c #A69EA0",
"#. c #AAA2A4",
"$. c #A6A3A4",
"%. c #BEB2AD",
"&. c #B1AFB0",
"*. c #B7B2B3",
"=. c #B9B7B8",
"-. c #BEBCBC",
";. c #C7A482",
":. c #CAA780",
">. c #CDAB84",
",. c #D0AE87",
"<. c #D0AE88",
"1. c #D3B18B",
"2. c #C6AE9B",
"3. c #CBAF98",
"4. c #D3B593",
"5. c #D4BCA1",
"6. c #C2BCBC",
"7. c #CFC3BD",
"8. c #C4C3C3",
"9. c #C8C7C7",
"0. c #CEC9C9",
"q. c #DBD0CA",
"w. c #D6D5D5",
"e. c #D4D2D2",
"r. c #D8D5D6",
"t. c #D8D7D8",
"y. c #DAD9D9",
"u. c #DEDDDD",
"i. c #DDD9D8",
"p. c #E5DFDC",
"a. c #E8E1DD",
"s. c #E6E5E6",
"d. c #E3E1E1",
"f. c #EBE8E6",
"g. c #EEEEEE",
"h. c #EFEFEF",
"j. c #EDECEC",
"k. c #EEEEEE",
"l. c #EBE7E3",
"z. c #F0F0F0",
"x. c #F1F1F1",
"c. c #F2F2F2",
"v. c #F3F3F3",
"b. c #F4F3F3",
"n. c #F4F4F4",
"m. c #F5F5F5",
"M. c #F6F6F6",
"N. c #F7F7F7",
"B. c #F7F6F6",
"V. c #F4F3F3",
"C. c #F8F8F8",
"Z. c #F9F9F9",
"A. c #FAFAFA",
"S. c #FBFBFB",
"D. c #FAF9FA",
"F. c #FCFCFC",
"G. c #FDFDFD",
"H. c #FEFEFE",
"J. c #FFFFFF",
"K. c #FCFCFC",
/* pixels */
"J.J.m.g.x.J.J.x.g.m.J.J.x.g.m.J.J.g.g.C.J.C.g.g.J.J.C.g.g.J.J.m.g.x.J.J.x.g.m.J.J.x.g.m.J.J.g.g.C.J.C.g.g.J.J.C.g.g.",
"J.J.m.g.x.J.J.x.g.m.J.J.x.g.m.J.J.g.g.C.J.C.g.g.J.J.C.g.g.J.J.m.g.x.J.J.x.g.m.J.J.x.g.m.J.J.g.g.C.J.C.g.g.J.J.C.g.g.",
"m.m.m.C.m.m.m.m.m.m.m.m.C.C.m.m.m.C.C.m.m.m.C.C.m.m.m.C.C.m.m.m.C.m.m.m.m.C.m.m.m.m.C.m.m.m.C.C.m.m.m.C.C.m.m.m.C.C.",
"g.g.C.J.J.g.g.C.J.C.g.g.J.J.m.g.g.J.J.m.g.x.J.J.x.g.m.J.J.g.g.C.J.J.g.g.C.J.C.g.g.J.J.m.g.x.J.J.m.g.x.J.J.x.g.m.J.J.",
"x.x.C.J.C.x.x.C.J.C.x.x.J.J.m.x.x.J.J.m.x.x.J.J.x.x.m.J.J.x.x.C.J.C.x.x.C.J.C.x.x.J.J.m.x.x.J.J.m.x.x.J.J.x.x.m.J.J.",
"J.J.m.g.x.J.J.x.g.m.J.J.x.g.m.J.J.g.g.C.J.C.g.g.J.J.C.g.g.J.J.m.g.x.J.J.x.g.m.J.J.g.g.m.J.J.g.g.C.J.C.g.g.J.J.C.g.g.",
"J.J.m.g.x.J.J.x.g.m.J.J.x.g.m.J.J.g.g.C.J.C.g.g.J.J.C.g.g.J.J.m.g.x.J.J.x.g.m.J.J.x.g.m.J.J.g.g.C.J.C.g.g.J.J.C.g.g.",
"x.x.m.C.C.x.x.C.C.C.x.x.C.C.m.x.m.C.C.m.x.m.C.C.m.x.m.C.C.x.x.m.C.C.x.x.C.C.C.x.x.C.C.m.x.m.C.C.m.x.m.C.C.m.x.m.C.C.",
"g.g.C.J.J.g.g.C.J.C.g.g.J.J.m.g.x.J.J.m.g.x.J.J.x.g.m.J.J.g.g.C.J.J.g.g.C.J.C.g.g.J.J.m.g.g.J.J.m.g.x.J.J.x.g.m.J.J.",
"x.x.m.C.C.x.x.C.C.C.x.x.C.C.m.x.m.C.C.m.x.m.C.C.m.x.m.C.C.x.x.m.C.C.x.x.C.C.C.x.x.C.C.m.x.x.C.C.m.x.m.C.C.m.x.m.C.C.",
"J.J.m.g.x.J.J.x.g.m.J.J.x.g.m.J.J.g.g.C.J.C.g.g.J.J.C.g.g.J.J.m.g.x.J.J.x.g.m.J.J.g.g.m.J.J.g.g.C.J.C.g.g.J.J.C.g.g.",
"J.J.m.g.x.J.J.x.g.m.J.J.x.g.m.J.J.g.g.C.J.C.g.g.J.J.C.g.g.J.J.m.g.x.J.J.x.g.m.J.J.x.g.m.J.J.g.g.C.J.C.g.g.J.J.C.g.g.",
"x.x.C.J.C.x.x.C.J.C.x.x.C.J.m.x.x.J.J.m.x.m.J.J.x.x.m.J.J.x.x.C.J.C.x.x.C.J.C.x.x.J.J.m.x.x.J.J.m.x.m.J.J.x.x.m.J.J.",
"g.g.C.J.J.g.g.C.J.C.g.g.J.J.m.g.x.J.J.m.g.x.J.J.x.g.m.J.J.g.g.C.J.J.g.g.C.J.C.g.g.J.J.m.g.g.J.J.m.g.x.J.J.x.g.m.J.J.",
"m.m.m.C.m.m.m.m.C.m.m.m.C.C.m.m.m.C.C.m.m.m.C.C.m.m.m.C.C.m.m.m.C.C.m.m.m.C.m.m.m.C.C.m.m.m.C.C.m.m.m.C.C.m.m.m.C.C.",
"J.J.m.g.x.J.J.x.g.m.J.J.g.g.m.J.J.g.g.C.J.C.g.g.J.J.C.g.g.J.J.m.g.x.J.J.x.g.m.J.J.g.g.m.J.J.g.g.C.J.C.g.g.J.J.C.g.g.",
"J.J.m.g.x.J.J.x.g.m.J.J.x.g.m.J.J.g.g.C.J.C.g.g.J.J.C.g.g.J.J.m.g.x.J.J.x.g.m.J.J.x.g.m.J.J.g.g.C.J.C.g.g.J.J.C.g.g.",
"g.g.C.J.J.g.g.C.J.C.g.g.J.J.m.g.g.J.J.m.g.x.J.J.x.g.m.J.J.g.g.C.J.J.g.g.C.J.C.g.g.J.J.m.g.x.J.J.m.g.x.J.J.x.g.m.J.J.",
"g.g.C.J.J.g.g.C.J.C.g.g.J.J.m.g.g.J.J.m.g.x.J.J.x.g.m.J.J.g.g.C.J.J.g.g.C.J.C.g.g.J.J.m.g.g.J.J.m.g.x.J.J.x.g.m.J.J.",
"C.C.m.m.m.C.m.m.m.m.C.C.m.m.m.C.m.m.m.m.C.m.m.m.m.C.m.m.m.m.m.m.m.m.m.m.m.m.m.C.C.m.m.m.C.m.m.m.m.C.m.m.m.m.m.m.m.m.",
"J.J.m.g.x.J.J.x.g.m.J.J.x.g.m.J.J.g.g.C.J.C.g.g.J.J.C.g.g.J.J.m.g.x.J.J.x.g.m.J.J.g.g.m.J.J.g.g.C.J.C.g.g.J.J.C.g.g.",
"J.J.m.x.x.J.J.x.x.m.J.J.x.x.m.J.J.x.x.C.J.C.x.x.C.J.m.x.x.J.J.m.x.x.J.J.m.x.m.J.J.x.x.m.J.J.x.x.C.J.C.x.x.C.J.C.x.x.",
"g.g.C.J.J.g.g.C.J.C.g.g.J.J.m.g.g.J.J.m.g.x.J.J.x.g.m.J.J.g.g.C.J.J.g.g.C.J.C.g.g.J.J.m.g.g.J.J.m.g.x.J.J.x.g.m.J.J.",
"g.g.C.J.J.g.g.C.J.C.g.g.J.J.m.g.g.J.J.m.g.x.J.J.x.g.m.J.J.g.g.C.J.J.g.g.C.J.C.g.g.J.J.m.g.g.J.J.m.g.x.J.J.x.g.m.J.J.",
"C.C.m.x.m.C.C.m.x.m.C.C.m.m.m.C.C.x.m.C.C.C.x.x.C.C.m.x.x.C.C.m.x.m.C.C.m.x.m.C.C.m.x.m.C.C.x.x.C.C.C.x.x.C.C.m.x.x.",
"J.J.m.g.x.J.J.x.g.m.J.J.x.g.m.J.J.g.g.C.J.C.g.g.J.J.C.g.g.J.J.m.g.x.J.J.x.g.m.J.J.x.g.m.J.J.g.g.C.J.C.g.g.J.J.C.g.g.",
"C.C.m.x.m.C.C.m.x.m.C.C.x.x.m.C.C.x.x.C.C.C.x.x.C.C.m.x.x.C.C.m.x.m.C.C.m.x.m.C.C.m.x.m.C.C.x.x.C.C.C.x.x.C.C.C.x.x.",
"g.g.C.J.J.g.g.C.J.C.g.g.J.J.m.g.x.J.J.m.g.x.J.J.x.g.m.J.J.g.g.C.J.J.g.g.C.J.C.g.g.J.J.m.g.x.J.J.m.g.x.J.J.x.g.m.J.J.",
"g.g.C.J.J.g.g.C.J.C.g.g.J.J.m.g.x.J.J.m.g.x.J.J.x.g.m.J.J.g.g.C.J.J.g.g.C.J.C.g.g.J.J.m.g.x.J.J.m.g.x.J.J.x.g.m.J.J.",
"J.J.m.x.x.J.J.m.x.m.J.J.x.x.m.J.J.x.x.C.J.C.x.x.C.J.m.x.x.J.J.m.x.x.J.J.m.x.m.J.J.x.x.m.J.C.x.x.C.J.C.x.x.C.J.C.x.x.",
"J.J.m.g.x.J.J.x.g.m.J.J.g.g.m.J.J.g.g.C.J.C.g.g.J.J.C.g.g.J.J.m.g.x.J.J.x.g.m.J.J.g.g.m.J.J.g.g.C.J.C.g.g.J.J.C.g.g.",
"C.C.m.m.m.C.C.m.m.m.C.C.m.m.m.C.C.m.m.m.C.m.m.m.C.C.m.m.m.C.C.m.m.m.C.C.m.m.m.C.C.m.m.m.C.C.m.m.m.C.m.m.m.C.C.m.m.m.",
"g.g.C.J.J.g.g.C.J.C.g.g.J.J.m.g.x.J.J.m.g.x.J.J.x.g.m.J.J.g.g.C.J.J.g.g.C.J.C.g.g.J.J.m.g.g.J.J.m.g.x.J.J.x.g.m.J.J.",
"g.g.C.J.J.g.g.C.J.C.g.g.J.J.m.g.x.J.J.m.g.x.J.J.x.g.m.J.J.*.e.C.J.J.g.g.C.J.C.g.g.J.J.m.g.g.J.J.m.g.x.J.J.x.g.m.J.J.",
"J.J.m.g.x.J.J.x.g.m.J.J.x.g.m.J.J.g.g.C.J.C.g.g.J.J.C.w.k # @ 4 X.x.J.J.x.g.n.J.J.x.g.m.J.J.g.g.C.J.C.g.g.J.J.C.g.g.",
"J.J.m.g.x.J.J.x.g.m.J.J.g.g.m.J.J.g.g.C.J.C.g.g.J.J.C.g w a > @ . 2 -.J.x.g.n.J.J.x.g.m.J.J.g.g.C.J.C.g.g.J.J.C.g.g.",
"m.m.m.m.m.m.m.m.m.m.m.m.m.m.m.m.m.m.m.m.m.m.C.C.m.m.m.d ; h 3 ; O . + m t.m.m.m.m.m.m.m.m.m.m.m.m.m.m.m.C.m.m.m.m.m.",
"g.g.C.J.J.g.g.C.J.C.g.g.J.J.m.g.x.J.J.m.g.x.J.J.x.g.m.=.# , w , ; # . . > } b.g.g.J.J.m.g.x.J.J.m.g.x.J.J.x.g.m.J.J.",
"x.x.C.J.C.x.x.C.J.C.x.x.J.J.m.x.x.J.J.m.x.x.J.J.x.x.m.J.v + ; 5 > & & .     s w.x.J.J.m.x.x.J.J.m.x.x.J.J.x.x.m.J.J.",
"J.J.m.g.x.J.J.x.g.x.J.J.x.g.m.J.J.g.g.C.J.C.g.g.J.J.C.g.k > + ; 3 , @ @ o     ; v d.g.m.J.J.g.g.C.J.C.g.g.J.J.C.g.g.",
"J.J.m.g.x.J.J.x.g.m.J.J.x.g.m.J.J.g.g.C.J.C.g.g.J.J.C.B . O O @ ; s 5 > & + + . . , $.m.J.J.g.g.C.J.C.g.g.J.J.C.g.g.",
"m.x.m.C.C.m.x.C.C.C.m.x.C.C.m.m.m.C.C.m.m.m.C.C.m.x.t.> + & . O # > j z 5 + + O . . . k w.x.C.C.m.m.m.C.C.m.x.m.C.C.",
"g.g.C.J.J.g.g.C.J.C.g.g.J.J.m.g.g.J.J.x.g.x.J.J.x.g.9.. + ; +   o + a l 3 z 2 O X O . o O n s.J.m.g.x.J.J.x.g.m.J.J.",
"x.x.C.C.C.x.x.C.C.C.x.x.C.C.m.x.x.C.C.m.x.m.C.C.m.x.x.5 . , & . . o > # a > 2 > O o O O O + , -.m.x.m.C.C.m.x.m.C.C.",
"J.J.m.g.x.J.J.x.g.m.J.J.x.g.m.J.J.g.g.C.J.C.g.g.J.J.C.e.3 & , # o   O + & O s j 3 @ O + + + # > } C.C.g.g.J.J.C.g.g.",
"J.J.m.g.x.J.J.x.g.m.J.J.x.g.m.J.J.g.g.C.J.C.g.g.J.J.C.g.&.. # < # . . o X & a z M w ; & # # & > , f u.g.g.J.J.C.g.g.",
"x.x.C.J.C.x.x.C.J.C.x.x.C.J.m.x.x.J.J.m.x.m.J.J.x.x.m.J.m.a . & , ; # O . . < w l c w < > ; > < , ; , y.J.x.x.m.J.J.",
"g.g.C.J.J.g.g.C.J.C.g.g.J.J.m.g.x.J.J.x.g.x.J.J.x.g.m.J.J.e.; X : 2 . O . . ; < w x N j d a ; < > & ; , u.x.g.m.J.J.",
"m.m.m.C.C.m.m.m.C.m.m.m.C.C.m.m.m.C.C.m.m.m.C.C.m.m.m.C.C.m.8.. & . . + . . @ ; < s { } h a , > : # , + 1 y.m.m.C.C.",
"J.J.m.g.x.J.J.x.g.m.J.J.g.g.m.J.J.g.g.C.J.C.g.g.J.J.C.g.g.J.J.v X   . + + O : + > 2 l ..h 5 , # & & ; ; . [ J.C.g.g.",
"J.J.m.g.x.J.J.x.g.m.J.J.g.g.m.J.J.g.g.C.J.C.g.g.J.J.C.g.g.p.a.6.. X O + O @ > + & , s Y l 2 < O @ # @ , O o s.C.g.g.",
"g.g.C.J.J.g.g.C.J.C.g.g.J.J.m.g.x.J.J.m.g.x.J.J.x.g.l.3.4.T G y $ . ; O O + + > < ; 3 c c < : O O O O < O . b m.J.J.",
"g.g.C.J.J.g.g.C.J.C.g.g.J.J.m.g.x.J.J.m.g.x.J.J.x.q.;.,.` W A 9 O . X + O # > + ; & < l M < > & + # # & + . + s.J.J.",
"m.m.m.m.m.m.m.m.m.m.m.m.m.m.m.m.m.m.m.m.m.m.m.b.O._ <.1.1.<.>.' ^ A % . . o ; & & @ > j ]  .x 2 ; + O O O . . B m.m.",
"J.J.m.g.x.J.J.x.g.m.J.J.x.g.m.J.J.g.g.C.J.C.g.2.;.5.1.1.1.,.:.) Q T F q . . O + O + & s ] 6.n 2 & + O O . . . # t.g.",
"J.J.m.x.x.J.J.x.x.m.J.J.x.x.m.J.J.x.x.C.J.C.p.E ) <.1.1.1.>.' ` Q Q Q P -   . . O O # w M i.{ 2 & + O O o . . . | h.",
"g.g.C.J.J.g.g.C.J.C.g.g.J.J.m.g.x.J.J.m.g.x.%.T ^ ` 1.1.1.,.` ( ~ ~ Q Q p X   . . O # > k t.#.w & @ O O O . .   d J.",
"g.g.C.J.J.g.g.C.J.C.g.g.J.J.m.g.g.J.J.m.g.x.o.^ ^ ) 4.5.4.<.` ) ( ~ Q I S 7 . . . o + & 3 *.0.g > # + O O . .   > J.",
"C.C.m.m.m.C.C.m.m.m.C.C.m.m.m.C.C.x.m.m.C.b.K ^ ! ) 4.4.1.>.` ( ^ W P G V t $ . . . O @ ; ..d.M < & + O o . . . . 9.",
"J.J.m.g.x.J.J.x.g.m.J.J.x.g.m.J.J.g.g.C.J.7.G Q ^ ) ,.<.>.) ^ ^ Q I S Z i y 8 . . . O + + x f.#.w ; @ O o X . . . -.",
"C.C.m.x.m.C.C.m.x.m.C.C.x.x.m.C.C.x.x.C.C./ J W ^ ) ' ' >.^ Q W I G C V V t 8 * . . X O + a e.e.h < # O o . . .   B ",
"g.g.C.J.J.g.g.C.J.C.g.g.J.J.m.g.g.J.J.m.j.D I R Q ^ ` :.' ^ W L G Z V V y e - % +   . O O , 6.f.M < & + O . . .   b ",
"g.g.C.J.J.g.g.C.J.C.g.g.J.J.m.g.g.J.J.m.f.i P T ~ ) _ ) ( Q U S Z u t r 0 7 * $ $ O   . o & +.g.@.a > # + + o .   2 ",
"J.J.m.x.x.J.J.m.x.m.J.J.x.x.m.J.C.x.x.C.b.y J R ( >.>.) ^ R H C u r 8 7 6 = $ * % $ O . . O Y d.6.3 & > < , < & .   "
};
