/* XPM */
static char *_4f35935c0a34cb7de142b765110c4b1X09lvxc74T0HPYaW[] = {
/* columns rows colors chars-per-pixel */
"128 128 64 1 ",
"  c #1E1812",
". c #262016",
"X c #27221D",
"o c #2E2923",
"O c #342F29",
"+ c #3B342E",
"@ c #403933",
"# c #463F38",
"$ c #4D453E",
"% c #544B46",
"& c #584E43",
"* c #5A514C",
"= c #635954",
"- c #67594A",
"; c #655A4F",
": c #6D5C48",
"> c #71655C",
", c #79645C",
"< c #756656",
"1 c #786652",
"2 c #7C7066",
"3 c #807060",
"4 c #887560",
"5 c #86786E",
"6 c #897869",
"7 c #957E70",
"8 c #8D8176",
"9 c #918171",
"0 c #93816C",
"q c #9D8577",
"w c #9C867E",
"e c #9B8973",
"r c #938B7F",
"t c #9A8A7A",
"y c #998A7F",
"u c #968C7A",
"i c #A38D84",
"p c #A68E80",
"a c #A19080",
"s c #9D9280",
"d c #A4917B",
"f c #A19288",
"g c #9D9488",
"h c #A69585",
"j c #A19785",
"k c #AC9A84",
"l c #AB9A89",
"z c #A69C8A",
"x c #AB9C91",
"c c #A69E92",
"v c #AF9E8E",
"b c #B5A28C",
"n c #B5A493",
"m c #B4A49A",
"M c #B0A693",
"N c #AFA69A",
"B c #BEAC9C",
"V c #B8AE9B",
"C c #BDADA2",
"Z c #B7AFA2",
"A c #C4B4A9",
"S c #C0B7AA",
"D c #C9C0B3",
"F c #D2CAC0",
/* pixels */
"577859w8>2*o%. Xo. *5sjh8tl0kd40ddddddebedddpdva@#=a9j#>zZCvatahtvhthxvannVmvlxmhmvvaxaa0hhhv0h0aaeaya9tea<a16X+%*5mfa9y987f555,",
"757782;;>>$X82#Xo..58mvhhhhdeb0kddkdddddk0epdahyO+=ax2#2vVAaxaCal9zvMnMAhnMCtnChnvvlM9hhvllthalhhaahlasaxedtaa+#=*=rg9696775755,",
"57,w52=;**@xZSh#oo ;r9yafhdhddpdddddddededeepthyX+;xl;&8nZfaaxah9xahlVlnnChmnalmlhvtvhhvlhl93ahqthhhlav0t0ee7p+O&*%*=9285x55,5,5",
"7555,=2;%##mAC92&#.*fygjlhVtddeqeddddeddkddd6tt9++#sx&=2NnhchhkvxavMmnvlCnhaCnnvmBMvnldaxlap96vvMxa83<aa0hteth&XO=*@**5=;525,,5,",
">,,,=;%#@;lCn9qq6&.+523ljl9lddpdqd4kp1993389388+@X$5<==2ghssahhtqxvNnnMZnCBSvnnannvnxCxvlvzatthxxvj696tttt03qt$oXo@%@$=$==;,,,,,",
";=,=;@%+0fCmnpq,q9.@><<5utnhvakdlpddd46963536>*+O.$;3#@8lgNhhaqttztvmvVBCBBBvnmnmCmvmvlhtnzl939vlvNh<61atlttqt;Oooo@$$%%%$**,*=&",
"*==O@#2ZSDvmpq797tOX2328232566>626<-36>;&;&$#o .oO+O##+ljhsh9hevtllnnDnnVCVnnmnvxvxlamlNvxll6-;3azllh-4at9e9e9&oXo@oO$*#$%$***%>",
"*#+#$xSASSCq977994&.+&82g52>2>32<23>3$++OX+oo#ooX O.+$OsshjaalthxlxvnvmnmnmnnlxhCnvlvlvtxlxqj9t<xaxhd-6tdtxhdt&oooo@2NZNrOO++#%#",
"X2##cmCSm9qt7h00tq..=+@;>2**$#+#o+O+#O#o.X .OO+$+o.@&&Olmaa6utp7fvhllvvvllxvxvlxtlhnilhhfhflh0432htha-1699tttt<oXo NCSASAhuu#O+X",
";>+axxM9qe0qtqlq4tX oOOooOOoo X.o.oOo%O@$O@$&%#&*&;;2$oftgt47ashhnMlavdlxlhavt9llhqhxhhhhhlhtt043<6tt&90tlttxa3Xo+ZFDAZSCaavcf#$",
"&$@hhlthe7eeaaqt<9+Oo@o#OO$*%rfcrccNCAASBmCclSBZlmvr>>.&hM6haae6xlalhlllllhllxhhpadlathdadvttq3449609-3te67tta@o;SFFDx9afcpyta9#",
";O$8fnattt0qa6623%o.oO+$2rNNZDFDFDFFFFFSFDDDFFDCMSZxMfX.Mhtasha0aa0hhtMjllltC9hada0e0md4tqq9qq7731-$9$3at4d99h$oZDSDvtyqt9w9qts&",
"$#O2xtqttt6t2>63$@.@%>cZASDDADDDSSDSADDDVDADAAASAZAAAS= &lgh9ataahah7haha0aehtt0tthtqe7th9307470413&#+3tetqaau+nSSDtya9t999tltya",
"52+%hatthya<<36%+%8xZZSSDDDnSCAADAAAZhSMCVSVSmBASBSSSSSO sctdhhhhhjhvtsataata7ataata49q0q70,641707963+-a36t22=$MZSMfjq9t69whyffh",
"yt+#lag9yg53>%@@%NAFASAZjCnCBaBvACBCABxnSCACBZnCCmvZVSC5OOujghhzspstt9aaahy9taa99M7ta4qq9974d47t4794<1&&&,=>=$zZnlhaglhftatl7ta9",
"jlO#ttav635;##$>ZFDSASCVZmnCZAAAZACCCVZvCVZhVAmnhlnvxxmx%+959yuhahhasacazaha0aMnt9atjt0etpa94407744004;+$*==%+jN68xvxaa69fft6hhc",
"yho#f93a8>@@o$ycFFSDlhnZCnVCxAAAVDVSVCBZVVmmnMnmvCahhhghh .5;2=528s4ua9lvaahaaahalya79hhj4446466:3,<,>2;%%>=+++u88998ag99h9t2388",
"9$o>96ny3#@O#f5FFFDnmvZVCAZAAASAVVCVCAMVVnCnNnvvahhhhahzc#.%>=&=5=,5y22>>>>2;><;>;>;>$>>>+>*=***=&>===*$8;oooo#Oc9t99588g5y85>55",
"%O5u2a93%O+$$8DFFDjCnZBZVABvAAVCBCBBBvBZnMnhnMzl9sel9fmta9 @%$>=====2;=;=;&&&=*==%%*%*%=@=$%*%%%*@%%>=$$O@ooXoXo+@%&%&>26<293655",
"&22>52u+OXX=*gFFFMvBCnSAZDCBDAmAAVSVZBZnZnZnnnxntaMta4htha; ;$%*$$&#;%;=;;;==*=$&%%*%$%*=$#$%@$O$O%O+oo#oooooXOO%@++#@**>&;&&$+o",
"O@>55*oooX.O#ZDFnCnCVBAAVABCVCVABBVmlBnCCnjvlvzlqa4tt4a3hs; O#oO++$@+++++#Oo%O@#$#$OOOO+O@oOX@@#$$%&===*%*$%$###*25>=%*;>=&+.X+X",
"ooO+#OO*;@$+@SFDMnCCmVCnZnCAAnAACVlCZmCnatMtmhvl0adtteahhg3.X+oO@2$$%*$*&o+oX X X.O&2ggrgryrurgggxZSDDFSFDFDDADSDZDSSSZxMlm5*#oX",
"o+ . 2xDDSr*OSDDnMMaACVnnAAvVSBmVCBVnVn0amVvvtqaade9tdtlch>2.OXoO$8mnZNNg>.XXX O+&9ZSSCSADDDDDDDCFDFDFDFFFDFDDADDDADCSSCSAcVvu>X",
"#.;.2DFFZDZ@$DFCMnAnvBZBhCZCCCjVAvCnMvjVvvClxtlhhatehtdtfl25OOOO$ZAAZZDCS2 XX.XO$gDDDSZBSxSSFDFMSSSSDCSAZSMASSCASCZBZCSnAxMZMlv5",
"zOO.>FFFCvzO&SDSvVnAVvBZMCBCAnnZnZlMnnlhzvllhlhta090ettalh2h@.X#mSSDASAZCN&...X2BDFFDManahzVztnnhlnZnnhCnMnMnaaMBCntzlMSnMZlvvnn",
"v9O+>DDzmaxO#SFSmnMvCaCnxnvnStjVhnSnnvvvvevnlejavta0ttd6sa9a@ $8SDDZNt9lhzNoX.8NBDFDMllnvnMhCnmnMvznVSSnSnCnSlVVVBZACnCnZnmnuvNa",
"zz .;ZBuzxzO.ADZMmnnnZnmZAnnlMlNmmnvvMzxttjhhha0tdet069vaar9O $5SZvcrrryrMy .hhDDDCtxNcnlhZnnVnmBCnCmaVZVZhCZCADnAACVVnCNSlMnCva",
"vtM 3xNzsNz#oZDDChMvxvmvBnNaMhmmMMvvvMjuv9hhhtaa6e9haalts6aa& OrSSZ8yrryfl5X2SNDZCxvNnBVZAlhCVvhSVZBCmMBMlCBCBZVMBMBZBCAMmMnmvvv",
"exl2.>jzuNz; rCSmCnMnvhvvZAMlmxNzvlvalllahst36t4attteMntetl9> @ZAZy85>rr8ho#cDSDmlhMvVBBvBBZBBBCBCVSBmBmBVVAVBASBBBZhVmCZZMsvZzt",
"clxnO.tzmzm2.2DSmzlvmvvmjnVnMmmvnvxaMjlhashaettt6ttattaete6a> @ZANy82585y3XxVCZlvxmnZmCAZVMVSBSSAVADSVMAAVAAAnABZVhVCVVSZBMvvlzl",
"hlhhjOOjMxn6.>mMvlvanNnNlNZh9vmvzzxlhaavaalllte6l0tthj04etea>.$CZNr525f58@+lavajtvvvnvnMAZvAvAVlVSVABAVZBZASBZBClZZCBSMCnZnvxj9h",
"jjuunsO>uxM#O>MMzMZnCSmnhlhvchxmznlhhac94adtMhdtttdh6e6eteta3 *DNNy25288fo*lclglNnznMvCVZlCBCBAVMVCvABCBMVMnZBCBZCmAClvnmnlvhtxl",
"hhhzng++>3$.%2lNxlnCBCmMxZlmxxfclmhh9ae9tastetht94aett37eee9t.$Zmc885558ro=NMjzllhvCnhnCBnVVBSVZnlBvNvACmhlSvBhNmnVnnmmmmvvvxhcZ",
"jhcj9t+$O..@&txnVnCnAnnvN69yvzczhthdu2;tdtd490j90tt943<#3ett3 #Ngf85558r8O&uxjMlchxaMlZvMvzavnmVMnmnmnVVvmMMhvCnmnxnNvMmMMtlllxt",
"alvlhx$+O+O@+c2ZhCfCVC95<<-<9NgNfhutz5--3tqtjeeht0e4--1394ea9.ogfy5258585@&tsxhjehfhjzzvxmznnCnhnCnnBlvnnChNnCCCnNahmCfmaMcM9xhh",
"llljs$o#8cD8+a9<>;>2uy6<1<6ttzNhss39931-<$<60<94099963640lttu X8af8588y83*#hjMhahahz0lhnxvmnvVMhNnnnmnmvMvMlMnmvNvmhNaMvNavlxMll",
"hlasa*#>vSDg+=ga33<1&&&-69zzNlhtft6633>---&&&--<-<<u09eee0ea9 .rgu88559y8#;haleaahttaaqhhVlvzvkNvhnZvnztlvxvhv9alhlxljxllthahauh",
"cujax+#a9CS8+=aje9a52><>ufNll9taa6ga96<66<-&#--&-&:-330et4stj o8tsuygfgsc@*hhtsaaethaajthl0lMlxlvnlvZvavvhztvaj9zlMlcl9Zlcjmhhah",
"hlhM8*8ya69;&5lNnvnx8thxsr2sajhtyt36e06099<--;&+&&&1-tet00gah .fcjyfysshj+5jahaatataaashxhhlvltlah9xlvlahz9ljllzzZllcathaMjhthxl",
"jtcj>O69aqt2&;MnmlCmNla6u63fxhjaead9uettu446633<<&<--##&etaaN*Ozghhthhljx@usal99dldedhsahhzalllalMxljvx9kllll9MjnltealCjlhxhxhha",
"9hjl=%tat67t$2CMmmnZcClsttthfhlh4aet930u0096949063<6&-#$+#&26$ 5gllhhhzjl+@65aahaatataaaeMahhh9hjhvljllahhd0dhhaathjz9hahahhhhhs",
"anl2&;5tf9wa;=lvNjMvMnZvllxhjhjasza4u009094909t00e443<1333<&+XO;ullvljtju&+66hh9fa6aaaz96ehhd0d4d9tltdh6vaasastaahsv9shhhhflhhzh",
"xlz$*3a9f936&o8vxMnCmnmNlazlhjataa60094090907tq4,01396<--366+Xo;628hay<;>;o>69ahhhvaaatanaaelaet4set0t0t40hhet00tttaeaatahsh9hh9",
"zjl+=;f769qt>+>vNvvlZMjMlvglthdat9u0u031da0900ah000014043283%@X@22>25>;;3+O@289tfhlasasaaattataes0heddtet0tlted3ttuedltasahvhhxj",
"9l9+>;t6q96h5o@xvamZZBvnvaacrhealte430t0e0409040400090et2,>%+oXO@<>52>#;O@2;o8265haaahaaaaat909tehel9te4eeet9eel4vehttaanhahfvhz",
"c9>+;gtf9fyhc>XflfNzNnMMhlctlhja6th0t0t404094400009039t3=*%@.  XOXOoOoOooO#=%%u53<a6fahtfhttvjatvt04t9aet4te0aj0vet4alaasamashlM",
"t9>*$=2ytytyt5XOy85vxMxvxul9hjhhaMztja009d40404ee046325=*%+$.  .ooo@=$=hr82>&#$y2>8tsvshahnhaah0tttdtt<te0h00t944t6atatthhhahl0n",
"8r$O%%*$*=>%=52o882>8yfy38383tytu96<<96-63<;<>,;&;,;>;;#=$O . X.O#lNgNNNSDFSN5$@5988hassa9x9ujjtuxt6u9ataaatavttaaahavfahhzhzj95",
"5>@X@%+>@%%%=>oo$*=>>>>>%=*;&@%%%%%%%%@*@%%@%$*=%%$**%=%#oX    O*cZSANBSSFDDZZc%@$>3<266<t2g8885385335536f999t99tt89t88989855522",
"35#oo+$%%%%%%OOX #*=;;,=;%*==%>$=%$%%%%%%%%%%%%%%%%%%%%@@ooXO.o2AADSSzhzzmBZZCVM5%##+-<>3398<;&#;&;;;=3;3<92333><>2><5<25>32835>",
"#O+ooOo+oooO+#O#@+OO+@@o@$X@+++@@@@+@$#@++++#$$$@@@+o#+#@#Oo+o&ZSSCDzNtl4VuMaZjZaMg$+@+@$@$#@@@O#$##+;$$++#$$&$%#&%>&>558y62&#O#",
"252rfgcfgxzjgr>**=#@Oo$#>%@+#%;@o+*%*%*;25<9yxjZmfxffvMmNxNO*OcAnZxzx9jzhzxtxjxzmzszf+$2>>;*#;rggccgzcZZcxgrtr2&$$@%@%&%&$#$*%>>",
"SAAZASAZNZcCCSmamyfy>>=$%2@OXoo+;MBZZSDSASAZSSBAASZZVmnSNmlco@xZnzzszztzjzzuzszzzzlNz+oDZZSDZSCZmSCZNcxSNaMNchsZf5#O=rf>rcNcSSDZ",
"FSSDDCSSZxxCZZZSNxxfyyw88%;+O@#jg9AZMASDDASZSvCAACAnmtlvxldlo*9zx9uzmzxzjzzzxzuzxzxsu2OZFFFDDCCZAZxlvhMMMzZccsftf3g@#;lNZDDDDDFD",
"mNmZmNfNyNNtxxmxmxt85685wa=$##@6jNmNBZZCNZvlah0eeqpalkadatdco#5jaxjjvhjNthgfjh2clxsl95OZDSASMheu399t9u9u6j36r9696u9++$zZDDSDADZN",
"rffxN8xf8xyx9fxf8yy7yyy9xsx>+*+zxtxjlzcMjMdn0ddqtehqt76tdaha+ #2>>>%>2>>2>8>;228558ga;XjCzzzuhztututusa9fshjuut>t63#O#;DFDSNNNfx",
"zaCfffxvmNxmtxxxhxxfyyyxgytj$oO*jsszhNr585>5,53;r6,y><>36u3#o#o@$@%%@*=*%$%**=2>>28u9XOghtssastjt6agghaNghjuts996696#@rDDNlfxrxx",
"NvNmxmCmZmMmmCNfN9Nf6fyfutff6oO$xaryur5>>=;=;=&=#=;&;&>2u8*#@#XXX+$%$$%%$@$$$$@$$@;>OXOye9c9zhatxzxzMMZnmxNvlsuuu9uu+#fFFNchc8Zx",
"xZmmxCNSCmcCZmZNxyfxfft6yyyhl$+$=2=>55&;=>;;=;;;==&=>;&*$+@@#OXX.oo+@@+###%>22>2r2=;oO2zljsMzvxMVMCNmSmVCNZvljut999u@#fFFyyc9vxx",
"MmNaxSCSZACCCmMCCxZsy8fyfyyyx$$%%$$%,$>=>##oo@ooO+oXoooo##$&#>>=2;8rgfNgxgcsulNtx2&$OO9luxzznMNmNMVVCBZAZvM9xaj90su3&=rSScxxcNNx",
"mmmZNlZxmmmCmCmMmxlNamayy93sy8+*o$@#$=$+XoXoO$*O@%;8l25rNSDDADSDASSDSZCNlMsvltlNm>g>@OgjlvnncMmCmVnCVZvZhVmMzzuNest0&$>ccchZgcxx",
"mmMmCZvaCCSmZCMCVfayxffyfyx9f7$@  o X.X.o o=ycZZZCAZFSFDDDFDFDFDFDZDSnMZMMxzNzN2;&;;&oxszvMzNmMtMmhVCVZmCmMjxh6tuccj<O#ccyffczxx",
"xMcMmmmCmamCmMmfxxjxffafxytyff$XO$f8cf3$ o=ZCZmZSFDFDSADDDAAVABvVmzvnxVneahz4<#&&->;-@6ssvzvhvmMnNlMmMxzcnCjsfu99auu3@$fgtgfgxzx",
"xNCxmhCmZmfmNvNNxmxffaf756jyff$.OcSZZg6;X%cSStcaVvZBSnVtZnMnMnMnMnnvvBvtjs--:&-#;;-$&+flzuZlvttnMZVVzxvzxtuhst6tutaus+#gxNxhN5xx",
"zxvMmmmlvxxyxxmxjffff9txfy29th+.+gr5655#@rSZZalvvvnMnVnCnVnnnnMlnnvnve09$--:--->-$##O+;zlvllsvznz9czjlfa6zeu6z6z9tatf@+xggaxfNxN",
"N6hxxhAxmcxzffc8xfyfuxqyu5htt>O.O*r55;oO8mSZclvvmBCnhVvBZBVCZVVBVlMnmn82<:<&3><<;$&#>#>lujjVjtthsattu9uug9u399u9sthsl #cxxxgxfxx",
"lxzNxhxtzxyxfgfftgfygy8y8yyfa$@@X@52*oO2SDSvxmzAnZBnnZBAnZVAVCVBBlnB3;--&<-<;<2>$;->y$$zlzjj906aulet3uuuuu9u9u9u9stthX%gsxgggcya",
"gygr85ysfhgfuyxyfyywyyyyfsfxx&*>Oo@#+$NSDDgnMnCBMVSASnDnSCABCnSBZnM8;-<--33<3<<<<5gzl#@lzzjhsahusj010tusu9usuu0tu9uafOglcNuugg6r",
"=%*%%;>yffff58yy788y7yif,yy6aO@@#%=>>SFDSDvZaCVBVAVAAABAVBBAVDz562<<--<28366>69alhgug##jlzz0Mhest9auust6ese08<<-r6ts@#52==*%%%>=",
"=@**=*22359ygff8yw3yN5f,y9ta2$jOO@3ZNDFSMNmvzVvVZBSBmBSAAMSx5><-936235r9aadtthhtzxxsf#@jthlut6666><;;;;;**$&**=*>>88@O82==**%$%%",
"++@@+#&&&;6r8fay8fyx88665555*2gg@3hSCSmZmtVnMCnVVAVnAnnAAAVCVlnNzvycuxflvvnvdhjhhfnlz=@>5;>>>>=***=$%%%*%$%%%**=>558o$++o@+@@@++",
"%$*+@*#&#$>532>23225>>3-2>3=$8hg+>NZSvvzMnZvMVVBSBAMSBSBCBvnSCCBABCVlnvnvtvlldNhehClx$#*;>==,==%=%$%$=@%*%#*=%&$$oXO#&#==2;;&$$+",
"ASCZnf8x2$%532>5>5-><32&&>@#zZnm@*tMrllvvnnnnVBBBDBABBBAVBBhvAVSVBvCBlnlvllvkljsth9xs*o252=;**%%$$@$#$#O#*&&;>=>>2rzvMMZmNhNBlAN",
"ZASCvnMhl;#+#*>>&&%%###o*$;ajSBcO+hjclxlvvmvMnznMnVnlnnBMBSnmVZBZNxBCnmnM0zlah9lxflzx$+=2;2=;&>;32rrcmNASASDDDFFDSDADDDDZDAADSDD",
"ZZZmaMhhhc=+O@@##OO@+*&2zMCSCghhX@gjghhtjtjhla9vklpnnCAVVZBBBZmBVCVVVMnmvvjlhllh9xllj*o>rZxaxzimMCAASDDDDFDFDFADDFDDASSDZDSSADBM",
"xxxjahMhcZl+O@5rlhhNNNcmSCZlBahfO$csvhjhhhlellvvbVMnvnCAmBVBCCZSanmnMnnvhluhxhhcjsxlv#O8NzDBZVZASCSVSSSDDDDDFCFFDSSDSVMVmVCMMMnn",
"ztm0d06hljjxo;9lcmxZAZZZCNxgajatO$jcyhhjdhh0vlVMnvvtvnnMnVnnNnBMnndMnvjll94hlhrhglgfj8+mDDAZmvxMvlnmvvnBhVVZVSMCBSBSBvZCnMMBemvn",
"xazaddjhj9uaO+hlxhNNZCNmNxNhglsf@@lglfuahhd0hqdhkkklvaxvnnZndnMvzvvvxjlhhaatshjhjguyu&$CDFAnlhdadhlavavnSnVBVBlBCnmvZnZnznSMSMvz",
"ezzlhuhj6j9l##rjzmct6lMclng6sfcv@XlcNcf9llahhtaaahhhj9ljzvttvvzMlxhhhheahhshghfNg9f8r*=NSDmajdedq9nmvnvVACnZBABCBCVMnVnmMMmnvMlv",
"vvdlMadz9ljj2+a9atuflzuvtxcfa938$o98xNNchhjahahsahj9tzljlldlllsas6jshls9hhNthhh8hc535$$8ZDStdaaahhlevCmlCBCVmBZBZnlVAnznAMMMCMMm",
"Mjkjjk0ljvjz&+ntat6umMBgCMzfgyry++<8gxyf8jrhsll9ctlaaltstalsla6haaahlhaNg9xjgcgN2>>2>+o>lSVzh0ahdvulvhtSnClCVBhSAABVnVndnMVMkMkz",
"ekzznj6uzjMj&outyzMxMMZnhtcjgyghO#2;3gcycfcffru9sshsshhshsfssru8u6r5u59ryru5688;;&8;#OO@NZZlz6hahlzlvvmlzBABVSMhSBZnVnVnMmMnMzav",
"ts<-&-&ltzhz@#ftrtgMnNmAmMgxrgyh+>>>>252&55r2<>>&&;;;;$;&&>;&;;;;<;;<3525985r522;*O+$o@O5cNZjjh0ahjltvvvnVnnnVnSvZnVnMvVmv58clmz",
";&&13<3j0zza#$fguaxmBCZMcnvjcyy2+$26;2522232<2>;>;;;#;%#+OX..oX.o##+&&@O+@@#%#*=++ooo #X<>uzkjMjhhhvMtvnjnMnMVMlmhMj<;;;>>$2>;&;",
"<440e6hlhzla+;9t8lxMnCnvMCvcstr>#$XOO+.@.. ..   .      X   .       .         .      .  . <>65zjadh6taldh9aasjlaNlh6&-36641::<1-&",
"09u6shzzzlZ>;>at3lZSvVCvNCxau93%ooOoXo$O@+o+@*#**>2>gccfr2;>;O+.O+>>=@#@+#+o##*;2oOXoX X%#&>82zhja6atettsdtat993;-;90464e9t91936",
"hjhjhzuMx2-@@3ru9fzvnMnmmvja8t9$#+ #>xzZCSZcNNxcxZrcxZNgNgfcr*@oOgDFSDSDDSASZxmCCZCZ22%#o++@-<-ujha0ttettst62-2<<69ha0tshaajaaaj",
"atszjzlMN23O#vttufxnMhCmMxha99c#*o#MZSDFSDFSZxZxZmcfcccNZg8rf5%o%ZFDFDFDFDSSDSSCSAACZCxh9;2O&;;alhslat9tshtahetha6dsCttauadala09",
"=><532>32>#o#9tuh3ganMmvxxft9t8#@=rZSSDDASZCASCSCNsgry>r285888*o*FDFASmZCCNNNCmSNxhfmfxy8t;*@*5ushhjhh6zxauta98233-6253,2>>>>>>>",
"<<2>3;;;<3+@#sutuththvmNmlh9uts$#;NZDAhcfzclMNsCBZcxcfyry888y8*o;CChtahlxaxfahhhfy78t79799t>$@,256s5,>2*>>,;;;=>;=&>==&$;=;%;=>>",
"#$##%@@o#&O+%a699ggxvNnMlcstrgg@&5uSzmg9mBmCCcCZCNvZrxgcry28ry$ >xqatmmfhlhhlftxhmpqq9:76t6t;#&>&;>,=*=*&$=22;%;=&>;=>;>;>>>==$$",
"&$$#+O+ooo$O;as3umhamnNlZluruaho@5szhaZzSNCCZCZSZCCmNxgxcyffyr#O2fat96flnlxlCxxCxxaatf9777pqt;#*$#@+$#OO+O$%#+%&%##+$O+>rgr52=*%",
"vZmyyZxx=ooO;at66aftxxhMcsyttv8+@5zuj9mMnZNSCCCZBCCZNZzNfxfyr8#Otatpta6hlxnvlv9mfhpfwy99676l9y#$OOoo oOX X.   .X XXo$NDFFFDSCmAS",
"FFSADAZvM=ooyty6yaxhNlmuygguanh+%2laNxMmxNZmSMDFAASZZACmNcgggf=oahvttahhxhmavx9axhhaa7669q19tt&oXOX.NZCNSmcgg;o.@XooNDFFFFFFFDFF",
"FFDCASACj>oohat6tvgvxmtNfhrusch@oZnuhxxmBSCAASASASnSCDNSxNxcrg=oamwaytahltvvxxlltxi6tt9966799y%o#o.gmDCSNccgfg#X Xo5SFFFAFAFFFFF",
"ZaxNxxxmc;*ovaa99hctxlvzxtctgfa#+jtjlvZZSnSADVSASCCmZCZmNZcfgf3ouafa3acaahxaxlxhhlat99q67619y69@OX&xZcNcy88rg8hXoX2ZFFAmnCZAASSC",
"yxwf8hffl;=X@hysaxlxcvzNaytaam>$OjjtNmnZCAASACASAAZCCNyfxcfyyyrO#5xwx9ial9itfhaqtaqh3a663t6y9ta>o*9gfrryrgtrryfo %cDFSfZm9hmmvav",
"Nhyfxfxhf>>o@ggastylvzxag86aca;#@gxaNmCCDACADADvZCNvmNZxcgfyf5vX+5taa999spf6f9xtfqttw67467q:faxxo#6at6rgy9ugtfzX+mSFDSmC9lmnmCBm",
"qxplxxffh<$oohufth6hlcjar9<6u9%+otjvnMmCASASVDASCmCZyyfgfg2f8gf#X$=svtz6ttttaty9t6676744:4799thzo@asyy2f8rrg8a>o$ZDFDxchvNaCxmnh",
"Vjtxxaxtht>@o>xjgjglvzay9ua9uj&O*xxnMmZCSBSADSCCMSNvZxggyr58wfg#X%=*faxy6fata9tf6t7667967679tal&@$ufyrfgcggysz$ yDFFSvZhMnCBCxSv",
"vzhhhlhfth=@XX3ygllltx9atuystj%+;NjljZNhACACCSCSZNamhrfg88888r88Oo%*>h9tyt6ttt9t6q77:6q7679tu9z;@62uyrrtyuysaz++8FFFCMlvmCVvBCnm",
"Mnxlxhxfag9$+.99hjxcxvystt9ahj%O5xsNxxMnZZZvZCZNNxcyyfgx2888585go.=*%>8ytaatttt992369t773qtt88go+u6ag6syutssjl+$cFFSa6xvCBSBDVmn",
"nZlxCvlCtqa>@X&2hMjhmht9rutf9l$#>gjxjcgMcNmhmmmNcxfcyy852r5%$##>OXo$%*&>#2>222>$;,&<&;;;;,2;2<<O&zNsafruyas0Mz+%cFFZcZlMCxvvnClm",
"vmfvmmvmfat8OoX2fxl9gaxtajfhxlO@&<9jsNcfNvNxcxxfxg8r5885855&28r>oX.+==%%>>;;;2,>;;>;>;;=;&%$$#@OrujNN9ushtsju5O%AFFZxlNnCCCnZnvn",
"vxxlvnaxtf93o. 23sjtlfafaagxgzo$>28xjjacrlg6fgxyyr8r852555582rr8oXo. .*&$$#&&*=;=$@++@+@@@@$>$&O256thhhMsMug6#o>AFSflxvNnmvCnmmm",
"mvvvxmxfcyfxOoX;<5jjltuslClll;O>533558xzlchffrf2gyy8y885828r2;2@o oo. . O.  ..ooO%====>$@@##O+&o5y3525866262<OO2SFSxtlNCmnmnCnMn",
"vhxAsvfyx9aa+O y-;2hjNvatlzl-;+#;3222>&>5uysgmuuagaayyyr>2=;>>#X  .Xo.   O..&zZFDSNNSDZSDDCZgy=$@@&<<<><>222#o+8SFANlxCmCMMmMZmS",
"mvvxnlq7f69t@..*;;;>>995y86;>#X. o25;&=;,&>;>;;-&;>%**&**&;;2$X ..X ..X.X$;gNDFFFDDDDSDDDSDSZZSc>#o++@#&>$#@@#@5SDCBcnlnmmxlvnCt",
"vtxaxxhffy8f+ .X+$5;>;;;;2&;.. #  ...XO&+;=*%*%&$%&=%***$2<>OX@  X..   +.&*fDFFFAxzSluxfrNmZmcxc88>=#@+XXoOoX+#8SFAxClvmcCnxnvnC",
"MxxxxlhxytyyX XoXX+$>->;;+o.. *&;>;2+OX ..$+=$;>&@$%$$$*OooXX.X.XooXo...$>9ZDFDZjaxaxfN8fygyfryf8gyxcgmxxjxl#oo8FDDvfxZlZCmmMhNv",
"nxhxlhfftyy6O+@5**OoO+OX  +rZSVDSDSSDDDS2+ XOo o..  .O.oXoo%*&&>=**&#$$+%;zZAZfytNg8xgycrr9gy8rrfcmZZ8fNfggx5OOaZAANlxvCnCnvnllv",
"xttlxmmy9ty5@@SSS5$+OX o5ZDSFDFDFDDDDDFSAx;#O..  ..$mcDDDSSScZVmncNccgg$+*NNmajxNhhfc8y5fyy8ycyyycZgcNcmggxfh+@txSnnxxNmmnmntnvz",
"hxtxwx9attt5+ZDSSZ&#+ 8ZDFSAASxClSBbnnvZBMf8;o..  8DDFDDSSASscggmNfcgyggX+zzavzazzajaxry85yy5gryrrf8ry8fyg88fO@;vCAmlxhNcmnxnmv9",
"xamxwl9at3y8@ZSDMlx+++SFFDDnMBZdChbknnlvMnlhz-;..ONSDSAmNcchx9gftgmggfgh;+shxz6sxzxchafygrfrf868g8gryrg5yfxxt+*&aCZhcqCmmnmhCnxt",
"fhhfif797wt8OBCMzxzO.5DDDZnVBBBVBCBdnbjldkplk95#O#ZSZxhgafya8tycrgy8ya9g&@5zzluzlzzlhhffryry>g8rrg6gygryryygf#@5mCAlNhnlfNChxxhf",
"xffihaa9ya6t@rMMxz5o#rFDMnChABVBZBBnkvbpbdtlMh9>O&ANZjzggztuxNgrtyyyc8hs;O>Mltxznjljxzffgjfuuygygygyyfgygyggj@$8lSCllxmnmvvmvxxt",
"tffhalty9ytto2zxht=O@SSNxClSBCBVBVBBvbkVekdd4hf;o$gjcu3h6t2gcfa9yrguy9yu+@@rglaftuyu98539g5c8Nfhgffffa8fr58gzX#sxmMlnvvmnmlxlxfa",
"fthhfyw7fta2Orjzxz>O;ShxNnZlVBSBVnlndqkd0ed4dhc&O lNNhNggahtjzf6fc95>526O$$+o+*8y8t8658855963gu53528222;5;66lX$aNVMlxxlamnmxflff",
"ahxfaawy7wy>@5lusf+olncMzMlCBaNSMbklkddbddedaVM2+ozN9l9sjxfshlhs25>>;5;$&+o+ X   . ..o.oO@+##@+@+O@@#@$;;;8u;@@9CZmxlhnnlhvxtmlf",
"yfhiatttyif2+#xzNZO 9jxhslBAVannbd7ddddd0ddehtx>@o8y9yuaaauyt93>%&*52>#+&$#+#oOooXOXXXX.X.X.X.o.XXX.Ooo.+ X  o;txCAlchvNxaxf7xty",
"x7t9qft76yy2o+yZsz. fcshjahZlvvdkkkvdebdeepetha>+$%>25>9883>2>>2%=##+%O====>=>>2888frgNNmNANZSNCNZNNnvmxa$oX X>clVAxmxcvlfttify8",
"yt9ty8fwytx5Xo99xl.+cjhfhmvjlnvaVlltkkdedqda9hm2o>@@$>;>885%8*#+*>yNZnZNZnSvSADADSSSSCZDSCVZBCCmCvxlxa0avs$OoorxlxmlClNlxahxftfa",
",ittqwhtixasoX;2<5 #axfj6hjh9llvkMMld0ek4daahlu8O#O#=O*++X +o#%rZDSSMDANlSDSSSmZCZCZmCnmnvMlhxahjl9jahtatc9&X$zlhvxl9xlxaaphy5if",
"f7qtw7y5y9fa*o*222.#ughf9tjkdvMev0ldddddddvalhlz+@8SZr+ OXO*ZZZZDSDSDSSMmMNMvNMlhazatatalat4a6dt6aaadtvt09aa+o;llxNvxlNphhf3ft38",
"5wyw999fqfxx @Xf%& &jhyfghaVhhkkkkhdeddd40lt0thl %NFDN+#o+=CVCCCcMhaaattta9ashhh9lqtxhaattt9eaqtlaqd9tqatttaaOOxajglaaaa8fy7w65y",
"f9396ty6f89y .O+;2.$fjchjgj0lkkkk0ldd0deeedeatxaO&NSSj;O%*CSNNhhnaaad9a0jah9hhmvphjvhaltaahaltahz9dtttdttq7tj$+ll9xxhjhyMtify869",
"3q655w8y89;;o.X@&@ $ajycfjsvleakdkpkkdpd0ddd4hhlO&8ljz%O=NZZx0ataayhqfavtlnl0xlvatlxhlqhnhahxa9a7at4td9tetqt4;Oy7ljthfwytt6y93y,",
"y8y788tq6><o+.Xo+# #xjxglvhhldkdqekpkddedkdke0jl+$>nxj$ogmSZxahahhhhstMtBaxvnvmnhvtvxvllllZhthhhtahthvattqata&O%=*xhuxutyfy79777"
};
